<ttFont>
          <CharString index="0">
            -89 -56 58 145 77 16 101 35 131 hvcurveto
            180 678 39 149 31 21 141 15 callsubr
            -151 2 -80 hflex1
            -13 -41 rlineto
            -72 callsubr
            -170 -643 rlineto
            -25 -94 -13 -79 -68 vvcurveto
            -72 14 -59 28 -52 vhcurveto
            -113 62 143 -82 250 hhcurveto
            170 152 76 115 98 hvcurveto
            88 104 63 140 50 190 127 494 rcurveline
            61 231 37 61 131 27 12 41 rcurveline
            -43 -4 -67 -2 -62 -76 -98 2 -53 hflex1
            -12 -41 rlineto
            115 -17 44 -28 -83 vvcurveto
            -52 -17 -74 -28 -106 vhcurveto
            endchar
          </CharString>
          <CharString index="1">
            -72 callsubr
            -270 213 callsubr
            237 6 328 -77 callgsubr
            14 51 15 57 14 54 15 37 rrcurveto
            -46 hlineto
            -271 -133 -118 -92 -197 hhcurveto
            -27 -57 callsubr
            143 callsubr
            18 hlineto
            -85 callgsubr
            return
          </CharString>
          <CharString index="2">
            rmoveto
            -25 -2 -26 -2 -25 -26 -25 2 -26 hflex1
            -781 -975 -127 -160 -45 -49 -77 -35 rlinecurve
            -9 -41 rlineto
            43 4 33 2 58 75 94 -2 121 138 callgsubr
            -136 18 -56 40 56 vvcurveto
            32 20 39 34 42 vhcurveto
            160 199 rlineto
            416 hlineto
            31 -254 rlineto
            2 -14 0 -13 -13 vvcurveto
            -104 -62 -23 -117 -5 vhcurveto
            -38 callsubr
            74 95 callsubr
            139 115 152 -2 79 hflex1
            11 41 -41 2 -47 31 -13 98 rlinecurve
            -453 336 rmoveto
            -378 hlineto
            328 409 rlineto
            endchar
          </CharString>
          <CharString index="3">
            14 callsubr
            -102 callgsubr
            return
          </CharString>
          <CharString index="4">
            -89 -59 51 144 77 17 103 37 137 hvcurveto
            127 473 39 150 30 20 142 15 callsubr
            -152 2 -80 hflex1
            -12 -41 rlineto
            -61 callsubr
            -117 -438 rlineto
            -35 -133 -20 -98 -77 vvcurveto
            -85 23 -60 53 -55 vhcurveto
            -94 88 168 -17 131 hhcurveto
            221 152 76 115 98 hvcurveto
            88 104 63 140 50 190 rrcurveto
            endchar
          </CharString>
          <CharString index="5">
            -103 -4 -139 -2 -143 -148 -139 2 -76 hflex1
            -10 -41 rlineto
            98 -4 40 -12 -62 vvcurveto
            -24 -6 -32 -11 -42 vhcurveto
            -215 -811 -104 callgsubr
            return
          </CharString>
          <CharString index="6">
            rmoveto
            -99 -69 -59 -72 -54 hvcurveto
            -93 -121 -95 -268 -82 -282 -420 708 rcurveline
            -78 -4 -88 -2 -102 -72 -67 208 callgsubr
            126 -5 37 -12 -6 -80 rlinecurve
            -123 -536 -116 -412 -109 -161 rrcurveto
            -66 -45 -63 -47 -68 hhcurveto
            -23 -18 4 11 -10 hvcurveto
            121 20 92 16 callgsubr
            -131 -123 94 -97 146 102 64 64 65 53 vhcurveto
            102 126 116 412 99 411 572 -936 rcurveline
            45 hlineto
            159 653 132 379 120 170 rrcurveto
            61 45 50 52 79 hhcurveto
            23 18 -7 -10 11 hvcurveto
            -121 -20 -92 -88 -123 vvcurveto
            -96 71 -56 111 127 102 305 callsubr
            -94 96 -145 vhcurveto
            return
          </CharString>
          <CharString index="7">
            rmoveto
            -75 -26 -19 -33 -22 hhcurveto
            hintmask 10101000
            -15 -30 18 10 -23 hvcurveto
            29 -59 -111 66 -192 hhcurveto
            -232 -307 -129 -287 hvcurveto
            hintmask 10100100
            -332 412 -178 -346 vvcurveto
            -107 -50 -82 -190 -210 -124 106 212 48 6 57 13 36 vhcurveto
            -41 hlineto
            hintmask 01101000
            -62 -284 -41 -119 -37 -88 rrcurveto
            41 hlineto
            88 37 14 22 37 hhcurveto
            hintmask 10100100
            17 24 -14 -16 29 hvcurveto
            -64 113 69 -31 215 hhcurveto
            234 362 115 299 hvcurveto
            hintmask 10101000
            336 -456 221 283 vvcurveto
            145 104 53 117 184 111 -98 -166 -31 -4 -43 -9 -38 vhcurveto
            41 hlineto
            hintmask 10011000
            41 215 51 131 29 71 rrcurveto
            endchar
          </CharString>
          <CharString index="8">
            rmoveto
            -75 -95 2 4 -120 hvcurveto
            -9 -41 rlineto
            132 -17 48 -35 -52 vvcurveto
            -34 -20 -41 -29 -48 vhcurveto
            -363 -600 -97 655 rlineto
            -5 26 -2 23 18 vvcurveto
            83 47 17 115 5 vhcurveto
            9 41 rlineto
            -78 294 callsubr
            -147 -111 -94 285 callgsubr
            29 -2 31 -24 12 -105 rlinecurve
            50 -310 -211 -357 -107 626 rlineto
            -6 30 -4 28 24 vvcurveto
            48 18 34 61 8 vhcurveto
            8 41 rlineto
            -65 -4 -115 -2 -125 -125 -86 243 callsubr
            45 33 -45 -86 16 hvcurveto
            195 -1083 rlineto
            27 3 26 1 26 26 26 -1 24 hflex1
            423 711 116 -711 rlineto
            27 3 26 1 26 26 26 -1 25 hflex1
            593 971 107 174 66 34 77 35 rlinecurve
            9 41 rlineto
            -4 -43 -33 -2 -58 hhcurveto
            endchar
          </CharString>
          <CharString index="9">
            rmoveto
            -82 -30 -27 -40 -26 hhcurveto
            -10 -10 6 12 -10 hvcurveto
            hintmask 10101000
            29 callsubr
            -328 180 -197 418 164 137 -3 callgsubr
            hintmask 01101000
            18 8 -17 -35 -19 -2 -22 -4 -29 hvcurveto
            45 hlineto
            18 104 35 140 68 248 rrcurveto
            -45 hlineto
            -66 -160 -45 -84 -74 -80 rrcurveto
            hintmask 10101000
            142 callgsubr
            hintmask 10011000
            47 219 43 145 41 107 rrcurveto
            endchar
          </CharString>
          <CharString index="10">
            -78 callgsubr
            hintmask 10110110
            71 callsubr
            -154 66 -145 331 callsubr
            112 167 callgsubr
            -24 -12 -35 vhcurveto
            -103 -102 74 -211 hhcurveto
            -152 -147 -80 -127 -133 hvcurveto
            553 543 rlineto
            336 hlineto
            16 41 rlineto
            -311 hlineto
            567 557 rlineto
            111 42 42 50 34 vvcurveto
            hintmask 01110110
            11 -4 9 -8 7 vhcurveto
            endchar
          </CharString>
          <CharString index="11">
            rmoveto
            563 375 447 362 336 -258 158 -369 -563 -375 -447 -362 -336 258 -158 369 hvcurveto
            293 1266 rmoveto
            117 84 -119 -309 -391 -199 -410 -277 -116 -84 119 309 391 198 410 277 hvcurveto
            endchar
          </CharString>
          <CharString index="12">
            rmoveto
            -92 -88 -53 -82 -66 hvcurveto
            -57 -72 -91 -148 -70 -183 -15 83 rcurveline
            336 -57 -80 119 -238 hhcurveto
            -164 -100 -88 -139 -47 309 callgsubr
            45 hlineto
            33 94 rlineto
            43 14 18 25 31 hhcurveto
            83 46 -188 -341 44 hvcurveto
            -81 -313 -37 -145 -28 -25 -146 227 callsubr
            143 2 146 145 148 226 callsubr
            -99 4 -39 12 61 vvcurveto
            24 6 0 callgsubr
            106 416 114 307 103 145 64 66 rlinecurve
            66 64 57 18 47 hhcurveto
            22 17 -2 -10 14 hvcurveto
            -127 -27 -86 -102 -123 vvcurveto
            -109 66 -63 102 123 100 92 145 133 -88 105 -131 vhcurveto
            endchar
          </CharString>
          <CharString index="13">
            rmoveto
            -313 227 -179 377 588 391 564 450 315 -230 179 -376 -590 -387 -564 -452 vhcurveto
            958 979 rmoveto
            105 75 -160 -268 -494 -250 -512 -266 -104 -76 160 268 494 250 512 266 hvcurveto
            endchar
          </CharString>
          <CharString index="14">
            17 51 10 47 42 vvcurveto
            101 -56 69 -145 -181 -128 -92 -408 -164 vhcurveto
            56 213 -52 callgsubr
            hintmask 01010100
            -62 callgsubr
            3 10 -1 -4 rlineto
            hintmask 11100100
            451 118 226 508 110 hhcurveto
            14 8 -10 -21 -18 -6 -27 -12 -35 283 callsubr
            -22 -68 -10 -53 -43 vvcurveto
            -49 12 -36 22 -30 vhcurveto
            -49 35 66 -25 84 hhcurveto
            108 125 39 172 60 hvcurveto
            78 callsubr
            return
          </CharString>
          <CharString index="15">
            -107 -19 -123 -8 -141 -2 -27 -104 rcurveline
            -423 -124 -203 -438 -103 hhcurveto
            -14 -7 10 21 19 6 26 11 35 hvcurveto
            return
          </CharString>
          <CharString index="16">
            1483 rmoveto
            120 -45 121 -33 205 -33 8 29 rcurveline
            -162 88 -71 104 -51 160 rrcurveto
            -37 hlineto
            -129 -137 -228 -137 -247 -78 10 -29 rcurveline
            174 29 160 39 127 43 rrcurveto
            return
          </CharString>
          <CharString index="17">
            -97 125 callsubr
            -89 callgsubr
            return
          </CharString>
          <CharString index="18">
            rmoveto
            121 -46 121 -32 205 -33 8 29 rcurveline
            -162 88 -71 104 -52 160 rrcurveto
            -37 hlineto
            -129 -137 -227 -138 -248 -77 11 -29 rcurveline
            174 29 159 39 127 43 rrcurveto
            return
          </CharString>
          <CharString index="19">
            140 -102 90 -139 -56 -59 -15 -53 -47 vhcurveto
            -147 -165 55 -426 -290 -44 rrcurveto
            14 -52 -37 7 -26 hhcurveto
            -37 -15 -14 -27 -6 hvcurveto
            -1 -5 -1 -5 -4 vvcurveto
            -20 14 -10 33 vhcurveto
            2 3 0 3 hhcurveto
            28 2 39 7 53 14 rrcurveto
            27 -20 11 -28 -42 vvcurveto
            -22 -3 -25 -5 -31 vhcurveto
            -58 -323 rlineto
            -3 -18 -2 -17 -16 vvcurveto
            -131 98 -91 182 123 116 66 153 52 vhcurveto
            53 158 rlineto
            -41 hlineto
            -35 -104 rlineto
            -62 -20 -27 -37 -41 hhcurveto
            -26 -20 18 27 4 0 3 1 4 hvcurveto
            33 205 rlineto
            5 33 3 31 29 vvcurveto
            155 -85 93 -271 18 vhcurveto
            239 71 -21 395 128 155 rrcurveto
            37 30 35 21 60 hhcurveto
            24 17 -4 -6 12 hvcurveto
            return
          </CharString>
          <CharString index="20">
            rmoveto
            62 231 39 62 149 26 12 41 rcurveline
            -47 -4 -75 -2 -70 -76 -98 2 -53 hflex1
            -13 -41 rlineto
            115 -16 45 -28 -83 vvcurveto
            -52 -18 -74 -29 -107 vhcurveto
            -72 -271 38 callgsubr
            return
          </CharString>
          <CharString index="21">
            -9 callgsubr
            143 2 156 135 143 257 callsubr
            return
          </CharString>
          <CharString index="22">
            -65 callsubr
            rlinecurve
            -8 -41 rlineto
            return
          </CharString>
          <CharString index="23">
            rmoveto
            hintmask 01101110
            35 callsubr
            hintmask 01011110
            -82 callsubr
            hintmask 10011110
            -35 callsubr
          </CharString>
          <CharString index="24">
            303 callgsubr
            -45 -50 -70 -46 hvcurveto
            -53 -102 -143 -18 -91 hhcurveto
            hintmask 11101010
            -299 -86 198 -290 hhcurveto
            -222 -104 -116 -170 -199 176 -110 268 -17 hvcurveto
            4 37 rlineto
            -204 12 -78 62 90 vvcurveto
            74 53 30 64 vhcurveto
            hintmask 11110100
            108 129 -94 160 hhcurveto
            248 84 145 74 264 hvcurveto
            -272 -167 -206 -145 -132 -269 rrcurveto
            -293 hlineto
            -6 -41 rlineto
            280 hlineto
            -23 -52 -20 -57 -18 -63 -142 -496 rcurveline
            -274 -77 -48 -117 -122 hhcurveto
            -15 -12 0 4 -21 hvcurveto
            89 316 callsubr
            -93 49 -114 -140 -73 -75 -103 -137 151 -45 187 428 190 238 280 72 vhcurveto
            127 496 21 80 rlineto
            183 callgsubr
            -205 hlineto
            73 262 83 216 150 136 rrcurveto
            109 41 41 37 28 vvcurveto
            hintmask 11110010
            9 -5 9 -8 7 vhcurveto
            endchar
          </CharString>
          <CharString index="25">
            -90 callgsubr
            -39 hlineto
            65 callsubr
            -19 -14 9 27 13 2 16 7 21 hvcurveto
            return
          </CharString>
          <CharString index="26">
            41 42 26 45 43 vvcurveto
            27 -10 26 -24 24 vhcurveto
            28 -28 -33 12 -34 hhcurveto
            -49 -49 -25 -33 -33 hvcurveto
            -94 -94 -31 -136 -137 -219 return
          </CharString>
          <CharString index="27">
            rmoveto
            9 -9 -9 3 -11 hhcurveto
            -51 -62 -95 -24 -16 hvcurveto
            -53 -102 -143 -18 -90 -299 -86 198 -291 hhcurveto
            -221 -105 -117 -170 -198 176 -111 268 -16 hvcurveto
            5 37 rlineto
            -205 12 -78 61 91 vvcurveto
            73 53 31 64 vhcurveto
            96 117 -94 143 hhcurveto
            205 135 139 80 297 hvcurveto
            -297 -169 -238 -121 -137 -292 rrcurveto
            -272 hlineto
            -6 -41 rlineto
            260 hlineto
            -14 -33 -12 -34 -11 -37 -139 -463 rcurveline
            -166 -49 -50 -100 -120 hhcurveto
            -19 -22 0 4 -19 hvcurveto
            hintmask 11111000
            88 37 45 59 74 vvcurveto
            102 -90 49 -115 -141 -74 -75 -99 -143 156 -43 244 319 224 160 215 63 vhcurveto
            143 481 4 12 rlineto
            211 hlineto
            7 41 rlineto
            -206 hlineto
            88 286 77 182 182 147 rrcurveto
            30 12 120 47 47 vvcurveto
            hintmask 11110100
            8 -3 7 -8 8 vhcurveto
            endchar
          </CharString>
          <CharString index="28">
            136 callsubr
            -82 269 callsubr
            199 callgsubr
            -61 vvcurveto
            -19 -4 -23 -7 -29 vhcurveto
            -748 -963 248 935 -40 callsubr
            -96 125 callsubr
            -91 callgsubr
            21 5 26 8 34 vhcurveto
            747 956 -249 -937 -39 -149 -33 -21 -139 -54 callgsubr
            -4 -84 -147 193 callgsubr
          </CharString>
          <CharString index="29">
            rmoveto
            109 -45 113 -33 184 -33 8 29 rcurveline
            -137 104 -64 129 -43 201 rrcurveto
            -36 hlineto
            -52 callsubr
            rrcurveto
            return
          </CharString>
          <CharString index="30">
            -43 21 -21 -39 rlineto
            -29 -65 -57 -2 -29 -139 -43 47 -82 hhcurveto
            -72 -74 -37 -172 -51 hvcurveto
            -45 -149 rlineto
            39 hlineto
            14 43 rlineto
            53 19 14 25 35 39 22 -31 52 hhcurveto
            123 65 186 5 200 hvcurveto
            -427 -322 -293 -200 -249 vvcurveto
            -149 102 -113 187 141 100 42 63 74 vhcurveto
            -78 55 95 -27 92 hhcurveto
            297 163 351 337 hvcurveto
            return
          </CharString>
          <CharString index="31">
            rmoveto
            -19 callsubr
            vhcurveto
            hintmask 11101000
            43 callgsubr
            hintmask 11010100
            -57 98 -64 86 91 vvcurveto
            105 48 59 97 23 20 -5 -4 8 vhcurveto
            -30 -32 -35 -74 -86 vvcurveto
            -101 49 -71 82 96 49 98 84 186 -180 50 -172 -274 -133 -136 -174 -114 57 -86 65 -107 vhcurveto
            hintmask 11101000
            90 callgsubr
            hintmask 11100100
            -27 -22 4 11 -23 hvcurveto
            endchar
          </CharString>
          <CharString index="32">
            -49 callgsubr
            60 vvcurveto
            return
          </CharString>
          <CharString index="33">
            vhcurveto
            -57 -160 rlineto
            39 hlineto
            47 125 rlineto
            return
          </CharString>
          <CharString index="34">
            -50 callsubr
            hintmask 10110100
            -43 callgsubr
            hintmask 10101100
            55 196 callsubr
            35 344 callsubr
            -87 -30 -25 -36 -26 hhcurveto
            -12 -12 7 12 -12 hvcurveto
            hintmask 10110100
            73 -80 -117 60 -159 hhcurveto
            -609 -354 -490 -385 -274 217 -154 391 101 73 15 61 144 hvcurveto
            hintmask 01110100
            35 80 47 14 47 hhcurveto
            34 20 -21 -44 -9 -1 -11 -2 -11 hvcurveto
            endchar
          </CharString>
          <CharString index="35">
            99 -4 39 -87 callgsubr
            return
          </CharString>
          <CharString index="36">
            rmoveto
            -128 -85 -56 -177 -81 hvcurveto
            1 13 1 13 12 vvcurveto
            103 -46 92 -144 -141 -108 -47 callsubr
            98 37 35 31 41 hhcurveto
            18 9 -10 -23 -13 -3 -18 -6 -22 182 callsubr
            151 575 rlineto
            461 152 119 15 100 hhcurveto
            10 10 -4 -3 9 hvcurveto
            -121 -22 -103 -111 -120 vvcurveto
            -101 54 -53 100 135 96 119 137 111 -71 88 -127 vhcurveto
            return
          </CharString>
          <CharString index="37">
            -20 -66 -90 -43 -129 -2 rrcurveto
            -43 vlineto
            194 5 142 106 166 vvcurveto
            96 -84 35 -74 return
          </CharString>
          <CharString index="38">
            98 callsubr
            hintmask 11111000
            -15 -41 -86 -6 -72 hhcurveto
            hintmask 10111000
            -54 callsubr
            -276 -962 128 callgsubr
            hintmask 11111000
            263 919 34 callsubr
            hintmask 10111000
            90 -78 86 -125 vhcurveto
            endchar
          </CharString>
          <CharString index="39">
            rmoveto
            -102 -58 -66 -102 -127 88 -113 125 -70 hvcurveto
            -44 -125 -73 -151 -96 -146 -90 656 rcurveline
            190 -28 -84 54 -129 hhcurveto
            -117 -90 -45 -166 -58 309 callgsubr
            39 hlineto
            43 115 rlineto
            return
          </CharString>
          <CharString index="40">
            rmoveto
            -158 -135 -86 -67 -66 hvcurveto
            29 -25 rlineto
            72 80 66 26 65 hhcurveto
            47 35 -22 -56 -67 -61 -66 -88 -41 hvcurveto
            -54 2 -37 -10 -26 vvcurveto
            -21 21 -6 16 vhcurveto
            hintmask 11100000
            15 20 4 16 31 hvcurveto
            37 -8 34 -24 -74 vvcurveto
            -188 -247 -109 -215 -18 vhcurveto
            -37 vlineto
            288 18 420 113 205 vvcurveto
            108 -125 41 -180 2 vhcurveto
            hintmask 11010000
            148 27 219 90 117 vvcurveto
            75 -86 35 -119 vhcurveto
            endchar
          </CharString>
          <CharString index="41">
            8 31 5 32 31 vvcurveto
            102 -52 91 -164 -46 callsubr
            return
          </CharString>
          <CharString index="42">
            -39 -149 -33 79 callgsubr
            return
          </CharString>
          <CharString index="43">
            2 -79 hflex1
            -11 -41 rlineto
            -72 callsubr
            return
          </CharString>
          <CharString index="44">
            -85 callsubr
            82 221 callsubr
            151 164 -2 92 hflex1
            8 41 rlineto
            -128 4 -48 13 68 vvcurveto
            24 5 29 10 38 vhcurveto
            return
          </CharString>
          <CharString index="45">
            53 29 -31 -86 -2 hvcurveto
            41 hlineto
            108 406 41 151 19 18 92 7 202 callsubr
            -74 -5 -124 -2 -140 -123 -174 2 -92 hflex1
            -38 callsubr
            124 -5 48 -14 -72 vvcurveto
            -27 -6 -34 -12 -45 vhcurveto
            -48 -180 rlineto
            return
          </CharString>
          <CharString index="46">
            98 -4 40 -87 callgsubr
            return
          </CharString>
          <CharString index="47">
            450 296 callgsubr
            944 148 302 callgsubr
            1741 -1482 326 hintmask 01001100
            1692 93 callsubr
            19 56 10 50 43 vvcurveto
            102 -57 59 -127 -160 -134 -72 -275 -129 vhcurveto
            11 37 rlineto
            16 56 8 49 42 vvcurveto
            104 -52 59 -128 vhcurveto
            hintmask 01001010
            -194 -130 -110 -267 -116 hvcurveto
            23 90 rlineto
            8 33 5 35 32 vvcurveto
            101 -48 86 -152 -125 -114 -47 callsubr
            hintmask 01010010
            92 35 35 37 38 hhcurveto
            21 11 -9 -26 -12 -3 -17 -6 -22 182 callsubr
            82 317 rlineto
            hintmask 01100010
            384 127 125 243 100 hhcurveto
            14 6 -7 -13 -16 -7 -23 -9 -31 hvcurveto
            -246 -854 rlineto
            365 hlineto
            84 290 rlineto
            509 159 135 145 70 hhcurveto
            11 6 -8 -16 -15 -5 -22 -10 -29 283 callsubr
            -21 -61 -10 -53 -45 vvcurveto
            hintmask 11001100
            -43 10 -36 17 -29 vhcurveto
            -57 35 65 -29 90 338 callsubr
            52 150 rlineto
            endchar
          </CharString>
          <CharString index="48">
            207 -172 76 -371 vhcurveto
            -86 -84 -4 -143 hhcurveto
            -103 -166 2 4 -79 hvcurveto
            -11 -41 rlineto
            105 -7 32 -22 -51 vvcurveto
            -25 287 callgsubr
            -268 213 callsubr
            82 4 153 2 146 145 125 -2 94 hflex1
            8 41 rlineto
            -106 5 -32 22 49 vvcurveto
            25 9 33 11 42 vhcurveto
            127 482 rlineto
            hintmask 01110100
            152 -7 46 -59 -93 vvcurveto
            -22 -2 -23 -4 -24 vhcurveto
            hintmask 10111000
            -39 -233 rlineto
            -3 -18 -1 -18 -16 vvcurveto
            -134 93 -81 202 197 108 78 172 53 vhcurveto
            9 27 rlineto
            return
          </CharString>
          <CharString index="49">
            hhcurveto
            -129 -115 -33 -64 -90 hvcurveto
            -88 -61 -88 -115 -65 -186 rrcurveto
            -208 hlineto
            -12 -41 rlineto
            207 hlineto
            -6 -18 -6 -19 -5 -20 -362 -1348 rcurveline
            115 18 108 9 148 2 371 1376 rcurveline
            return
          </CharString>
          <CharString index="50">
            hlineto
            -96 -38 11 59 24 7 176 callgsubr
            return
          </CharString>
          <CharString index="51">
            -198 170 -25 102 -100 45 rrcurveto
            10 -19 -22 5 -23 hhcurveto
            -50 -54 -24 -52 -25 hvcurveto
            -9 -18 -4 -18 -18 vvcurveto
            -50 31 -47 50 -25 vhcurveto
            return
          </CharString>
          <CharString index="52">
            65 callsubr
            -19 -14 9 27 13 2 145 callsubr
            return
          </CharString>
          <CharString index="53">
            -211 -281 -53 callgsubr
            81 17 103 hhcurveto
            69 82 -7 -10 86 hvcurveto
            return
          </CharString>
          <CharString index="54">
            208 -29 35 1438 35 hstem
            -92 391 1034 391 vstem
            1503 288 callsubr
            -65 -60 -25 -49 -61 hvcurveto
            -96 -89 -115 -178 -89 -192 -26 213 rcurveline
            219 -26 -86 101 -215 hhcurveto
            -158 -117 -58 -161 -59 hvcurveto
            -54 -158 rlineto
            41 hlineto
            35 104 rlineto
            84 29 43 37 53 hhcurveto
            49 25 -22 -60 8 hvcurveto
            88 -707 -132 -249 -144 -166 -92 -66 rlinecurve
            -30 -48 -43 -21 -49 hhcurveto
            -26 -17 6 11 -10 hvcurveto
            125 28 88 101 122 vvcurveto
            109 -66 63 -102 -123 -100 -92 -145 -133 86 -105 135 68 63 23 45 62 vhcurveto
            111 91 126 166 96 178 23 -183 rcurveline
            -205 27 77 -115 246 hhcurveto
            146 102 58 161 59 hvcurveto
            54 158 rlineto
            -41 hlineto
            -35 -104 rlineto
            -78 -27 -41 -29 -53 hhcurveto
            -51 -27 27 51 -8 hvcurveto
            -81 662 120 266 126 176 87 74 rlinecurve
            32 45 45 19 45 hhcurveto
            27 16 -6 -11 10 hvcurveto
            -125 -28 -88 -101 -122 vvcurveto
            -109 66 -63 102 273 callgsubr
          </CharString>
          <CharString index="55">
            -113 -170 -195 -170 -215 -94 11 -29 rcurveline
            141 29 135 39 102 43 return
          </CharString>
          <CharString index="56">
            181 -29 35 1233 35 hstem
            -76 391 918 391 vstem
            1403 1274 rmoveto
            -66 -67 -21 -51 -60 hvcurveto
            -78 -68 -85 -126 -76 -145 -10 91 rcurveline
            183 -21 -80 137 -250 hhcurveto
            -157 -107 -74 -174 -57 hvcurveto
            -43 -129 rlineto
            41 hlineto
            32 96 rlineto
            64 23 35 43 67 hhcurveto
            80 29 -70 -102 12 hvcurveto
            53 -473 -118 -203 -122 -138 -83 -57 rlinecurve
            -32 -47 -43 -19 -49 hhcurveto
            -27 -16 6 11 -11 hvcurveto
            125 28 88 101 122 vvcurveto
            109 -65 63 -103 -122 -101 -92 -145 -133 86 -105 135 68 66 21 47 59 vhcurveto
            95 74 105 129 88 146 11 -97 rcurveline
            -191 20 86 -129 258 hhcurveto
            154 98 84 135 45 hvcurveto
            54 158 rlineto
            -41 hlineto
            -35 -104 rlineto
            -56 -19 -32 -43 -72 hhcurveto
            -80 -29 64 108 -12 hvcurveto
            -53 473 101 202 102 137 75 59 rlinecurve
            35 43 48 16 45 hhcurveto
            26 17 -6 -10 10 hvcurveto
            -125 -29 -88 -100 -123 vvcurveto
            -109 65 -63 103 273 callgsubr
          </CharString>
          <CharString index="57">
            90 334 41 151 18 19 97 6 rlinecurve
            8 41 rlineto
            -74 -4 -123 -2 -139 -123 -176 243 callsubr
            115 -5 51 -31 -79 vvcurveto
            -23 -5 -27 -8 -32 vhcurveto
            -37 -137 rlineto
            return
          </CharString>
          <CharString index="58">
            4 callsubr
            -135 -156 return
          </CharString>
          <CharString index="59">
            164 86 -80 -242 -2 hvcurveto
            45 hlineto
            6 33 8 45 12 49 23 92 18 319 callsubr
            return
          </CharString>
          <CharString index="60">
            -58 -153 -56 -74 callsubr
            return
          </CharString>
          <CharString index="61">
            -141 -89 -68 -143 -51 -74 callsubr
            return
          </CharString>
          <CharString index="62">
            16 callsubr
            -221 82 callsubr
            336 0 147 138 -39 callsubr
            return
          </CharString>
          <CharString index="63">
            41 rlineto
            -99 4 -39 12 return
          </CharString>
          <CharString index="64">
            hflex1
            31 callgsubr
            return
          </CharString>
          <CharString index="65">
            87 0 47 688 23 0 12 639 39 hstemhm
            909 434 -307 402 hintmask 10111000
            799 758 rmoveto
            hintmask 10110100
            411 12 228 184 217 vvcurveto
            170 -140 107 -356 vhcurveto
            -86 -72 -4 -147 hhcurveto
            -105 -167 2 4 -84 hvcurveto
            -11 -41 rlineto
            107 -3 32 -22 -52 vvcurveto
            -26 -7 -32 -11 -41 vhcurveto
            -270 213 callsubr
            263 callsubr
            110 191 98 -6 74 hflex1
            hintmask 10111000
            448 268 164 287 180 -198 131 -346 -4 hvcurveto
            123 651 rmoveto
            hintmask 10110100
            96 18 -78 -96 -231 -108 -234 -215 hvcurveto
            -30 hlineto
            130 494 rlineto
            hintmask 10111000
            116 31 20 29 58 hhcurveto
            -320 -1362 rmoveto
            -64 -17 34 43 29 8 34 8 30 hvcurveto
            hintmask 11011000
            137 518 rlineto
            39 hlineto
            151 45 -117 -126 hvcurveto
            hintmask 10111000
            -218 -129 -227 -178 vhcurveto
            endchar
          </CharString>
          <CharString index="66">
            -86 callsubr
            -75 callsubr
            return
          </CharString>
          <CharString index="67">
            -56 callgsubr
            10 41 rlineto
            return
          </CharString>
          <CharString index="68">
            74 callsubr
            16 66 16 59 17 43 rrcurveto
            return
          </CharString>
          <CharString index="69">
            -10 -41 rlineto
            return
          </CharString>
          <CharString index="70">
            65 0 47 586 35 536 39 hstemhm
            874 431 -338 415 hintmask 00000000
            hintmask 11101000
            1382 995 rmoveto
            172 -155 76 -346 vhcurveto
            -103 -92 -4 -94 hhcurveto
            -139 -148 2 4 -80 269 callsubr
            107 -3 32 -21 -53 vvcurveto
            -25 -7 -33 -11 -41 13 callsubr
            hintmask 11110000
            403 277 125 266 129 -117 137 -383 5 hvcurveto
            hintmask 11101000
            379 24 198 139 170 vvcurveto
            -727 -327 rmoveto
            121 458 rlineto
            66 17 14 12 43 hhcurveto
            94 23 -80 -77 -201 -97 -178 -192 hvcurveto
            hintmask 11110000
            196 -242 rmoveto
            -227 -104 -152 -207 -36 -12 25 35 31 9 40 11 39 vhcurveto
            110 416 rlineto
            62 hlineto
            129 38 -96 -111 hvcurveto
            endchar
          </CharString>
          <CharString index="71">
            -6 -129 -170 0 -125 hhcurveto
            return
          </CharString>
          <CharString index="72">
            -473 -63 -72 callgsubr
          </CharString>
          <CharString index="73">
            1352 rmoveto
            129 137 227 137 248 78 -10 29 rcurveline
            -174 -29 -160 -39 -127 -43 -121 45 -120 33 -205 33 -8 -29 rcurveline
            161 -88 72 -105 51 -159 rrcurveto
            return
          </CharString>
          <CharString index="74">
            -157 264 callgsubr
            hstem
            -94 1358 vstem
            1073 1092 rmoveto
            -76 -88 -25 -100 -73 hvcurveto
            -37 -50 -31 -59 -27 -57 -6 53 rcurveline
            190 -20 -90 48 -150 hhcurveto
            -117 -139 -29 -180 -57 309 callgsubr
            39 hlineto
            26 76 rlineto
            139 47 33 15 33 hhcurveto
            35 28 -11 -69 10 hvcurveto
            62 -531 -30 -78 -39 -79 -48 -66 rlinecurve
            119 -37 -67 80 -109 hhcurveto
            -102 -86 -72 -121 -100 71 -64 117 76 88 27 98 76 hvcurveto
            38 50 33 61 29 63 10 -90 rcurveline
            -162 17 106 -47 142 hhcurveto
            106 139 27 182 58 hvcurveto
            78 callsubr
            -39 hlineto
            -27 -76 rlineto
            -139 -47 -35 -29 -34 hhcurveto
            -35 -23 23 71 -12 hvcurveto
            -61 543 29 73 37 76 46 62 rlinecurve
            -150 39 92 -49 86 hhcurveto
            109 76 76 107 110 -80 64 -111 hvcurveto
            endchar
          </CharString>
          <CharString index="75">
            rlineto
            -29 callgsubr
            return
          </CharString>
          <CharString index="76">
            275 0 37 669 52 655 37 hstem
            1198 422 vstem
            975 1450 rmoveto
            -78 -168 -4 -2 -57 hvcurveto
            -24 -25 -1 -26 hhcurveto
            -116 -132 4 3 -70 hvcurveto
            -7 -41 rlineto
            101 -6 31 -34 -56 vvcurveto
            -23 -5 -27 -8 -30 vhcurveto
            -125 -475 rlineto
            -141 hlineto
            -13 -52 rlineto
            140 hlineto
            -129 -489 116 callgsubr
            82 4 170 2 96 166 90 -6 68 hflex1
            762 274 532 404 344 -244 170 -401 hvcurveto
            -375 -1413 rmoveto
            -63 -23 13 41 27 10 39 15 56 hvcurveto
            129 493 rlineto
            329 hlineto
            12 52 rlineto
            -327 hlineto
            125 479 rlineto
            154 41 0 22 90 hhcurveto
            182 78 -145 -258 -422 -217 -551 -381 hvcurveto
            endchar
          </CharString>
          <CharString index="77">
            1376 171 callsubr
            22 vhcurveto
            43 160 callsubr
            483 -21 171 callgsubr
            22 vhcurveto
            43 161 callgsubr
            return
          </CharString>
          <CharString index="78">
            33 callgsubr
            rlineto
            131 34 56 31 102 hhcurveto
            66 28 -22 -47 -18 -4 -22 -8 -26 hvcurveto
            -385 280 callsubr
            162 579 rlineto
            73 -16 34 -32 -63 vvcurveto
            -24 -5 -29 -10 -34 vhcurveto
            -34 -145 rlineto
            -7 -31 -3 -29 -26 vvcurveto
            -114 63 -65 135 24 callsubr
            80 callgsubr
            -16 280 102 86 rrcurveto
            22 26 124 callgsubr
            206 callsubr
            return
          </CharString>
          <CharString index="79">
            rmoveto
            89 callgsubr
            -21 4 33 12 3 145 callsubr
            202 608 rlineto
            return
          </CharString>
          <CharString index="80">
            -148 -29 37 1434 37 hstemhm
            -23 365 -31 322 100 342 -164 351 hintmask 00000000
            hintmask 11010100
            1262 1257 rmoveto
            152 -166 70 -211 -301 -273 -164 -248 -151 100 -95 103 -96 vhcurveto
            hintmask 11101000
            -269 -101 -268 -170 -212 vvcurveto
            -189 199 -82 232 346 321 205 275 185 -143 99 -123 109 vhcurveto
            hintmask 11010100
            204 91 249 144 178 vvcurveto
            -482 -386 rmoveto
            -81 76 -66 85 123 vvcurveto
            143 96 144 96 60 26 -56 -108 -158 -55 -152 -76 -97 vhcurveto
            hintmask 11101000
            -317 -863 rmoveto
            -92 -29 80 119 203 86 185 110 107 hvcurveto
            100 -93 95 -99 -158 vvcurveto
            -178 -135 -166 -135 vhcurveto
            endchar
          </CharString>
          <CharString index="81">
            1602 rmoveto
            -168 -96 34 72 -84 hvcurveto
            -31 -16 rlineto
            -185 33 102 -149 201 hhcurveto
            225 213 164 176 107 hvcurveto
            -25 18 rlineto
            153 callgsubr
            return
          </CharString>
          <CharString index="82">
            240 78 149 8 107 return
          </CharString>
          <CharString index="83">
            -119 -100 -72 -110 -2 callsubr
            return
          </CharString>
          <CharString index="84">
            rmoveto
            -51 -43 -47 -15 -58 -86 -56 33 -75 hhcurveto
            -10 -11 -1 -1 -11 hvcurveto
            -119 -381 24 -23 rlineto
            15 39 45 14 47 hhcurveto
            78 27 -39 -59 -180 -246 -121 -188 -8 hvcurveto
            -37 vlineto
            264 12 420 117 223 vvcurveto
            94 -74 58 -170 -90 -68 -17 -20 -57 vhcurveto
            49 153 rlineto
            4 66 82 -26 71 hhcurveto
            103 78 96 141 49 hvcurveto
            endchar
          </CharString>
          <CharString index="85">
            102 callgsubr
            136 155 -14 callsubr
            return
          </CharString>
          <CharString index="86">
            rmoveto
            143 151 102 55 47 72 rrcurveto
            19 33 13 36 33 vvcurveto
            39 -17 35 -41 25 vhcurveto
            15 -24 -25 6 -23 hhcurveto
            -59 -51 -40 -47 -25 hvcurveto
            -45 -78 8 -112 -49 -211 rrcurveto
            return
          </CharString>
          <CharString index="87">
            58 callsubr
            35 hvcurveto
            -21 -66 -90 -43 -129 -2 rrcurveto
            -43 vlineto
            195 5 141 121 callsubr
          </CharString>
          <CharString index="88">
            18 41 39 77 89 vvcurveto
            108 -53 72 -80 -86 -53 -82 -101 -202 186 -60 193 return
          </CharString>
          <CharString index="89">
            100 callgsubr
            hstem
            230 356 229 callgsubr
            230 -8 callsubr
            -8 -483 rmoveto
            -103 callgsubr
            endchar
          </CharString>
          <CharString index="90">
            38 139 callsubr
            142 6 return
          </CharString>
          <CharString index="91">
            117 29 -149 163 hhcurveto
            129 140 96 237 80 hvcurveto
            -37 11 rlineto
            -86 -47 -46 -33 -55 -117 -28 149 -164 hhcurveto
            return
          </CharString>
          <CharString index="92">
            hlineto
            -378 -1405 115 18 108 9 148 2 rlinecurve
            return
          </CharString>
          <CharString index="93">
            148 -2 82 hflex1
            8 -36 callgsubr
            return
          </CharString>
          <CharString index="94">
            25 34 16 40 37 vvcurveto
            34 -14 33 -35 25 vhcurveto
            20 -27 -28 8 -27 hhcurveto
            -54 -49 -33 -42 -26 hvcurveto
            -53 -72 -2 -112 -68 -207 return
          </CharString>
          <CharString index="95">
            1622 rmoveto
            -121 45 -120 33 -205 33 -8 -29 rcurveline
            161 -88 72 -105 51 -159 rrcurveto
            37 hlineto
            129 137 227 137 248 78 -10 29 rcurveline
            -174 -29 -160 -39 -127 -43 rrcurveto
            return
          </CharString>
          <CharString index="96">
            1827 rmoveto
            -121 45 -120 33 -205 32 -8 -28 rcurveline
            161 -88 72 -105 51 -160 rrcurveto
            37 hlineto
            129 138 227 137 248 78 -10 28 rcurveline
            -174 -28 -160 -39 -127 -43 rrcurveto
            return
          </CharString>
          <CharString index="97">
            9 34 6 36 34 vvcurveto
            98 -47 85 -155 -122 -129 -54 -157 -58 -74 callsubr
            92 35 35 37 40 hhcurveto
            21 9 -10 -23 -13 -3 -17 -6 -23 hvcurveto
            -287 -1022 return
          </CharString>
          <CharString index="98">
            9 0 41 460 42 661 39 hstem
            997 433 vstem
            607 501 rmoveto
            492 13 331 202 251 vvcurveto
            170 -154 106 -393 vhcurveto
            -78 -88 -4 -144 hhcurveto
            -102 -166 2 4 -80 269 callsubr
            105 -4 32 -24 -51 vvcurveto
            -26 287 callgsubr
            -213 213 callgsubr
            82 4 153 2 146 145 125 -2 94 hflex1
            8 41 rlineto
            -105 7 -35 22 58 vvcurveto
            23 6 29 9 37 vhcurveto
            359 987 rmoveto
            82 26 -45 -117 -222 -96 -254 -283 -23 hvcurveto
            132 485 rlineto
            131 34 21 45 84 hhcurveto
            endchar
          </CharString>
          <CharString index="99">
            1511 rmoveto
            -92 43 -63 108 107 callgsubr
            vhcurveto
            528 hmoveto
            84 callsubr
            100 181 callsubr
            -105 248 callsubr
            return
          </CharString>
          <CharString index="100">
            1716 rmoveto
            84 callsubr
            100 105 3 callsubr
            -99 -59 -142 vhcurveto
            529 hmoveto
            44 callsubr
            94 -45 66 224 callgsubr
            return
          </CharString>
          <CharString index="101">
            rmoveto
            -109 45 -113 33 -184 33 -8 -29 rcurveline
            137 -104 64 -129 43 -201 rrcurveto
            36 hlineto
            113 170 195 170 215 94 -11 29 rcurveline
            -141 -29 -135 -39 -102 -43 rrcurveto
            return
          </CharString>
          <CharString index="102">
            24 0 41 1368 39 hstem
            1053 432 vstem
            632 582 rmoveto
            509 13 344 231 313 vvcurveto
            209 -170 100 -361 vhcurveto
            -102 -98 -4 -99 hhcurveto
            -139 -156 2 4 -79 hvcurveto
            -11 -41 rlineto
            106 -5 29 -24 -53 vvcurveto
            -24 -7 -31 -7 -39 240 callgsubr
            151 2 156 135 127 -2 94 hflex1
            8 41 rlineto
            -99 6 -35 29 59 vvcurveto
            23 5 27 9 32 vhcurveto
            210 callsubr
            rmoveto
            141 37 -6 35 59 hhcurveto
            113 45 -78 -137 -228 -104 -320 -306 -22 hvcurveto
            endchar
          </CharString>
          <CharString index="103">
            hflex1
            -38 callsubr
            -61 callsubr
            return
          </CharString>
          <CharString index="104">
            46 110 69 104 42 38 rrcurveto
            11 10 12 6 12 hhcurveto
            6 5 -2 -3 6 hvcurveto
            -66 -53 -32 -61 -53 vvcurveto
            -66 47 -51 76 108 84 106 107 return
          </CharString>
          <CharString index="105">
            -74 51 -35 92 58 45 15 22 return
          </CharString>
          <CharString index="106">
            rmoveto
            -37 -14 27 94 234 86 217 92 45 8 -49 -78 hvcurveto
            -219 -2 -74 -226 -104 hhcurveto
            -45 -553 rmoveto
            return
          </CharString>
          <CharString index="107">
            -95 68 -49 71 131 109 138 131 114 -96 99 -170 return
          </CharString>
          <CharString index="108">
            rmoveto
            147 39 43 23 84 hhcurveto
            4 hlineto
            136 94 -76 -233 -23 -1 -25 -2 -26 hvcurveto
            45 hlineto
            11 51 16 64 20 73 rrcurveto
            hintmask 10110000
            25 92 16 319 callsubr
            -6 -117 -153 0 -113 hhcurveto
            hintmask 11010000
            -348 hlineto
            hintmask 10110000
            -78 -157 0 6 -127 hvcurveto
            -11 -41 rlineto
            99 -4 39 -12 -62 vvcurveto
            -24 -6 -32 -11 -42 vhcurveto
            -270 -1016 -63 callsubr
            endchar
          </CharString>
          <CharString index="109">
            -162 -53 -164 -29 -223 -2 rlinecurve
            -15 36 callgsubr
            return
          </CharString>
          <CharString index="110">
            116 callsubr
            -104 return
          </CharString>
          <CharString index="111">
            41 rlineto
            68 callgsubr
            return
          </CharString>
          <CharString index="112">
            rmoveto
            -170 -121 -76 -77 -72 hvcurveto
            29 -23 rlineto
            64 63 66 30 65 hhcurveto
            58 37 -22 -60 -178 -330 -196 -98 -74 hvcurveto
            -9 -37 return
          </CharString>
          <CharString index="113">
            158 38 -149 216 hhcurveto
            145 156 96 238 88 hvcurveto
            -37 10 rlineto
            -86 -53 -52 -33 -63 -158 168 callgsubr
            return
          </CharString>
          <CharString index="114">
            -617 887 162 36 -20 397 82 hstemhm
            584 243 -77 67 hintmask 11110000
            629 1544 5 callsubr
            68 27 29 4 63 -2 rlinecurve
            -6 125 100 -31 93 hhcurveto
            hintmask 11101000
            14 callgsubr
            hintmask 11110000
            94 callgsubr
            endchar
          </CharString>
          <CharString index="115">
            252 -252 139 139 rlineto
            -27 59 64 -12 69 hhcurveto
            68 63 14 25 60 hvcurveto
            141 -141 252 252 -139 139 rlineto
            26 59 15 66 69 vvcurveto
            68 -15 66 -26 59 vhcurveto
            139 139 -252 252 -139 -139 rlineto
            26 -60 -65 15 -68 hhcurveto
            -69 -66 -15 -26 -59 hvcurveto
            -137 137 -252 -252 139 -139 rlineto
            -25 -60 -14 -63 -68 vvcurveto
            -69 12 -64 27 -59 vhcurveto
            258 192 rmoveto
            140 86 75 104 105 86 -75 -140 -139 -86 -74 -105 -104 -86 74 139 vhcurveto
            endchar
          </CharString>
          <CharString index="116">
            rmoveto
            -288 -246 -221 -215 -147 127 -82 198 287 248 221 217 143 -125 84 -201 hvcurveto
            -16 -41 rmoveto
            53 43 -37 -127 -176 -100 -243 -172 -53 -43 36 129 177 100 241 172 hvcurveto
            endchar
          </CharString>
          <CharString index="117">
            143 callgsubr
            hintmask 10001100
            -58 callgsubr
            return
          </CharString>
          <CharString index="118">
            rlineto
            31 -16 -33 20 -76 hhcurveto
            -454 -240 -523 -299 -213 123 -86 141 167 97 97 187 83 hvcurveto
            -7 -34 -3 -30 -27 vvcurveto
            -48 10 -38 20 -29 vhcurveto
            -51 35 63 -27 86 338 callsubr
            78 callsubr
            return
          </CharString>
          <CharString index="119">
            -660 1264 -20 95 158 -125 162 hstemhm
            221 94 hintmask 00000000
            hintmask 11010000
            928 1526 rmoveto
            -19 -75 -64 -10 -64 hhcurveto
            hintmask 10110000
            -112 -85 37 -110 hhcurveto
            -135 -62 -55 -93 -86 55 -53 91 -20 hvcurveto
            12 37 rlineto
            -31 6 -33 26 33 vvcurveto
            31 31 12 31 vhcurveto
            hintmask 11010000
            49 37 -33 69 hhcurveto
            100 88 59 77 162 hvcurveto
            -161 -169 -436 -280 -219 vvcurveto
            -64 37 -30 65 133 15 123 98 22 vhcurveto
            55 237 113 99 207 219 rrcurveto
            endchar
          </CharString>
          <CharString index="120">
            vhcurveto
            -217 213 callgsubr
            82 4 145 2 145 142 106 -6 105 hflex1
            return
          </CharString>
          <CharString index="121">
            -67 callgsubr
            10 41 rcurveline
            return
          </CharString>
          <CharString index="122">
            6 rlinecurve
            12 -49 callsubr
            return
          </CharString>
          <CharString index="123">
            68 callgsubr
            -136 -155 -152 29 callgsubr
            return
          </CharString>
          <CharString index="124">
            270 callgsubr
            -113 -19 -111 -8 -149 -2 rlinecurve
            -89 -311 rlineto
            -190 hlineto
            -38 callsubr
            188 hlineto
            return
          </CharString>
          <CharString index="125">
            207 647 rlineto
            -39 hlineto
            -101 -67 -114 -78 -238 -60 -10 -39 rcurveline
            86 17 53 18 62 19 return
          </CharString>
          <CharString index="126">
            102 37 -25 -53 -16 -4 -19 -6 -22 hvcurveto
            return
          </CharString>
          <CharString index="127">
            271 1016 39 149 34 21 134 6 202 callsubr
            -84 -4 -148 -2 -141 -141 -131 285 callgsubr
            rlineto
            81 -4 36 -13 -60 vvcurveto
            -25 -6 -32 -11 -42 vhcurveto
            265 callgsubr
            80 callsubr
            236 callsubr
            147 27 23 125 6 rlinecurve
            8 41 rlineto
            -80 -4 -133 -2 -137 -137 -142 2 -78 175 callsubr
            return
          </CharString>
          <CharString index="128">
            rcurveline
            -66 callsubr
            -62 callgsubr
            return
          </CharString>
          <CharString index="129">
            -8 -41 rlineto
            99 -4 39 307 callgsubr
            -33 -11 -42 vhcurveto
            -271 -1016 rlineto
            -149 -39 -30 -27 -142 320 callgsubr
            -98 -40 14 62 25 6 32 12 43 hvcurveto
            155 callsubr
            33 21 139 6 rlinecurve
            8 41 rlineto
            -84 -4 -143 -2 -135 -156 -148 28 callgsubr
            return
          </CharString>
          <CharString index="130">
            48 219 43 145 40 190 callsubr
            -87 -30 -25 -36 -26 hhcurveto
            -11 -12 7 12 -12 hvcurveto
            return
          </CharString>
          <CharString index="131">
            66 callsubr
            -25 hhcurveto
            -17 -13 8 31 12 2 16 4 19 hvcurveto
            return
          </CharString>
          <CharString index="132">
            39 99 callsubr
            10 41 rlineto
            return
          </CharString>
          <CharString index="133">
            -85 callsubr
            84 4 143 2 return
          </CharString>
          <CharString index="134">
            388 124 178 368 94 hhcurveto
            14 8 -10 -21 -18 -6 -27 -12 -35 283 callsubr
            -19 -56 -10 -54 -48 vvcurveto
            -114 60 -81 155 161 callsubr
          </CharString>
          <CharString index="135">
            -143 -66 35 72 -63 hvcurveto
            -31 -17 rlineto
            -184 25 77 -150 152 hhcurveto
            return
          </CharString>
          <CharString index="136">
            69 -59 -80 64 -164 hhcurveto
            -604 -434 -494 -489 return
          </CharString>
          <CharString index="137">
            -8 callgsubr
            -108 return
          </CharString>
          <CharString index="138">
            rmoveto
            -1 -11 -1 -10 -10 vvcurveto
            -147 113 -113 151 162 143 129 162 16 vhcurveto
            1 11 1 12 11 vvcurveto
            146 -113 113 -151 -162 -141 -131 -162 -18 vhcurveto
            endchar
          </CharString>
          <CharString index="139">
            rmoveto
            -78 59 -64 107 114 93 74 133 125 -78 109 -158 -37 -53 -13 -35 -41 vhcurveto
            -129 -115 54 -311 -259 -43 60 230 21 callsubr
            142 543 rlineto
            return
          </CharString>
          <CharString index="140">
            1241 rmoveto
            113 170 195 170 215 94 -11 29 rcurveline
            -141 -29 -135 -39 -102 -43 -109 45 -113 33 -184 33 -8 -29 rcurveline
            137 -104 64 -129 43 -201 rrcurveto
            return
          </CharString>
          <CharString index="141">
            rlineto
            -1 24 23 -1 21 hhcurveto
            136 157 14 56 90 hvcurveto
            107 65 27 72 72 vvcurveto
            return
          </CharString>
          <CharString index="142">
            -112 -19 -109 -10 -149 -2 -26 -87 rcurveline
            return
          </CharString>
          <CharString index="143">
            341 callsubr
            164 129 101 242 callgsubr
            -16 34 -30 27 vhcurveto
            22 -28 -32 10 -32 hhcurveto
            -42 -41 -19 -34 -26 hvcurveto
            -51 301 callsubr
            391 -14 rmoveto
            164 129 100 242 callgsubr
            -15 34 -31 27 vhcurveto
            22 -28 -32 10 -31 hhcurveto
            -42 -41 -19 -34 -26 hvcurveto
            -52 301 callsubr
            return
          </CharString>
          <CharString index="144">
            rmoveto
            195 74 106 8 72 47 rrcurveto
            42 28 return
          </CharString>
          <CharString index="145">
            rmoveto
            -76 -172 2 4 -39 269 callsubr
            109 -8 79 -33 -69 vvcurveto
            -31 -16 -39 -35 -47 vhcurveto
            -315 -419 -232 474 rlineto
            -19 40 -10 31 25 vvcurveto
            51 43 21 87 4 vhcurveto
            10 41 rlineto
            -78 -4 -98 -2 -133 -134 -147 315 callsubr
            67 -12 21 -37 43 -86 rlinecurve
            415 -853 rlineto
            -132 -89 -80 -74 -131 hhcurveto
            -33 -19 4 6 -12 hvcurveto
            return
          </CharString>
          <CharString index="146">
            -15 callgsubr
            188 80 119 166 193 vvcurveto
            445 hmoveto
            120 -62 48 -104 -131 -99 -91 -127 -88 58 -47 102 55 50 23 41 38 vhcurveto
            -8 -131 -106 -103 -111 -47 10 -37 rcurveline
            189 80 119 166 193 vvcurveto
            endchar
          </CharString>
          <CharString index="147">
            192 callsubr
            173 41 215 43 hstemhm
            -49 1192 -574 334 hintmask 01011110
            1090 282 callgsubr
            hintmask 01011101
            302 callsubr
            -22 4 34 12 3 15 7 21 hvcurveto
            203 608 rlineto
            17 51 10 47 42 vvcurveto
            101 -56 69 -145 -160 -118 -71 -297 -138 vhcurveto
            153 521 rlineto
            return
          </CharString>
          <CharString index="148">
            1499 rmoveto
            49 callsubr
            -24 19 rlineto
            -78 -119 -135 -37 -156 hhcurveto
            return
          </CharString>
          <CharString index="149" raw="1">
            be0a4b0b   
          </CharString>
          <CharString index="150">
            317 callsubr
            -79 352 -111 354 -112 276 return
          </CharString>
          <CharString index="151">
            108 callgsubr
            264 callsubr
            return
          </CharString>
          <CharString index="152">
            93 callgsubr
            -109 -104 return
          </CharString>
          <CharString index="153">
            127 callsubr
            -40 -153 199 callsubr
            -38 -6 -36 -32 vvcurveto
            -110 63 -71 144 return
          </CharString>
          <CharString index="154">
            -62 -29 47 -11 -21 1247 41 -14 -20 hstemhm
            209 420 59 473 return
          </CharString>
          <CharString index="155">
            rlineto
            161 hlineto
            -376 -1397 115 18 108 9 148 2 rlinecurve
            366 1368 rlineto
            205 hlineto
            13 41 rlineto
            -207 hlineto
            73 272 29 109 31 61 39 33 rlinecurve
            24 28 33 9 39 hhcurveto
            19 16 -5 -8 18 hvcurveto
            -114 -43 -68 -94 -104 vvcurveto
            -90 64 -50 100 133 88 109 96 141 -121 89 -200 vhcurveto
            return
          </CharString>
          <CharString index="156">
            28 callsubr
            157 callsubr
            return
          </CharString>
          <CharString index="157">
            8 41 rlineto
            -125 6 -47 23 69 vvcurveto
            26 7 32 12 41 vhcurveto
            return
          </CharString>
          <CharString index="158">
            61 callsubr
            92 return
          </CharString>
          <CharString index="159">
            150 39 30 20 135 hhcurveto
            7 hlineto
            return
          </CharString>
          <CharString index="160">
            rlineto
            21 62 9 53 45 vvcurveto
            return
          </CharString>
          <CharString index="161">
            1692 rmoveto
            -88 61 -48 119 251 callsubr
            vhcurveto
            return
          </CharString>
          <CharString index="162">
            306 28 186 197 184 vvcurveto
            127 -90 70 -132 26 vhcurveto
            return
          </CharString>
          <CharString index="163">
            -15 callsubr
            367 1376 rlineto
            235 hlineto
            -199 -696 rlineto
            -16 -56 -8 -50 -43 vvcurveto
            -130 69 -74 134 98 145 41 170 60 vhcurveto
            103 callgsubr
            return
          </CharString>
          <CharString index="164">
            -17 -31 -35 -10 -34 hhcurveto
            -74 -22 49 80 221 178 361 252 292 hvcurveto
            return
          </CharString>
          <CharString index="165">
            rmoveto
            -24 callsubr
            return
          </CharString>
          <CharString index="166">
            70 -113 49 -100 -92 vvcurveto
            -96 -63 -60 -84 return
          </CharString>
          <CharString index="167">
            -23 -16 4 7 -14 hvcurveto
            121 20 92 16 callgsubr
            -132 -122 94 -97 146 65 66 19 53 55 vhcurveto
            211 205 158 522 125 463 rrcurveto
            145 38 37 31 84 hhcurveto
            29 hlineto
            54 40 -17 -71 -23 -4 -29 -10 -36 hvcurveto
            265 callgsubr
            rlineto
            return
          </CharString>
          <CharString index="168">
            rmoveto
            114 callgsubr
            return
          </CharString>
          <CharString index="169">
            -108 -47 callsubr
            hintmask 11010000
            -32 callgsubr
            endchar
          </CharString>
          <CharString index="170">
            -13 -57 -65 -12 -107 -20 -21 2 -24 hhcurveto
            -7 -43 rlineto
            21 6 -14 -25 -51 -33 -143 -92 -201 hvcurveto
            return
          </CharString>
          <CharString index="171">
            245 callgsubr
            hstemhm
            144 391 -391 1486 hintmask 11010000
            return
          </CharString>
          <CharString index="172">
            79 callsubr
            -16 callgsubr
            -25 hhcurveto
            return
          </CharString>
          <CharString index="173">
            121 143 39 172 64 -57 callgsubr
            return
          </CharString>
          <CharString index="174">
            -39 -149 -31 -21 -141 175 callgsubr
            return
          </CharString>
          <CharString index="175">
            80 95 callsubr
            return
          </CharString>
          <CharString index="176">
            135 2 147 return
          </CharString>
          <CharString index="177">
            rmoveto
            -187 149 -88 230 383 194 287 176 189 -149 88 -229 -383 -195 -289 -176 vhcurveto
            567 428 rmoveto
            37 21 -37 -82 -246 -127 -301 -109 -37 -20 37 82 244 127 303 108 hvcurveto
            endchar
          </CharString>
          <CharString index="178">
            86 callgsubr
            53 callgsubr
            return
          </CharString>
          <CharString index="179">
            -11 -8 -21 28 -21 628 41 619 -20 28 -20 hstemhm
            160 159 return
          </CharString>
          <CharString index="180">
            0 148 137 74 callsubr
            return
          </CharString>
          <CharString index="181">
            186 0 139 hflex1
            15 104 24 107 15 51 return
          </CharString>
          <CharString index="182">
            -62 0 155 callgsubr
            return
          </CharString>
          <CharString index="183">
            250 176 138 137 return
          </CharString>
          <CharString index="184">
            217 rmoveto
            -16 callgsubr
            -25 134 callgsubr
            203 608 rlineto
            16 49 7 45 39 vvcurveto
            110 -61 67 -119 -182 -127 -77 -282 -131 vhcurveto
            251 895 -149 -53 -148 -29 -207 -2 rlinecurve
            return
          </CharString>
          <CharString index="185">
            51 150 rlineto
            return
          </CharString>
          <CharString index="186">
            -43 -115 rlineto
            return
          </CharString>
          <CharString index="187">
            rlineto
            -147 -39 -25 -29 -127 320 callgsubr
            -81 -36 15 61 25 6 33 11 42 hvcurveto
            return
          </CharString>
          <CharString index="188">
            -162 110 -92 181 280 203 213 195 160 -109 94 -180 -280 -205 -213 -195 vhcurveto
            return
          </CharString>
          <CharString index="189">
            213 callgsubr
            237 6 return
          </CharString>
          <CharString index="190">
            149 30 21 281 callsubr
            return
          </CharString>
          <CharString index="191">
            -92 43 -63 109 return
          </CharString>
          <CharString index="192">
            1333 rmoveto
            193 229 86 217 160 hvcurveto
            -31 23 -125 -164 -190 -117 -226 -2 rlinecurve
            -78 -73 6 23 -45 hvcurveto
            94 27 74 75 78 vvcurveto
            101 -72 47 -123 -123 -88 -76 -105 -135 162 -84 262 vhcurveto
            return
          </CharString>
          <CharString index="193">
            166 166 295 callgsubr
            return
          </CharString>
          <CharString index="194">
            276 callgsubr
            125 282 -176 346 -112 315 return
          </CharString>
          <CharString index="195">
            153 callsubr
            10 41 rlineto
            return
          </CharString>
          <CharString index="196">
            -378 -364 -21 1360 202 callgsubr
            return
          </CharString>
          <CharString index="197">
            -7 0 41 426 41 752 -20 return
          </CharString>
          <CharString index="198">
            119 84 callgsubr
            return
          </CharString>
          <CharString index="199">
            138 callsubr
            25 return
          </CharString>
          <CharString index="200">
            332 -28 callsubr
            return
          </CharString>
          <CharString index="201">
            -139 -1 callgsubr
            return
          </CharString>
          <CharString index="202">
            4 135 2 return
          </CharString>
          <CharString index="203">
            1731 rmoveto
            -148 -117 -101 -131 -115 91 -69 118 144 129 104 129 111 -94 72 -123 hvcurveto
            -45 -373 rmoveto
            -82 -82 49 92 98 92 91 111 79 91 -46 -98 -104 -103 -82 -106 hvcurveto
            return
          </CharString>
          <CharString index="204">
            97 -385 35 1059 41 151 37 174 203 -109 307 hstemhm
            31 420 -283 166 hintmask 11110010
            return
          </CharString>
          <CharString index="205">
            rmoveto
            -125 -76 -88 -113 -86 47 -70 56 -36 hvcurveto
            return
          </CharString>
          <CharString index="206">
            139 callsubr
            141 6 rlinecurve
            return
          </CharString>
          <CharString index="207">
            -24 -108 rlineto
            -7 -32 -4 -29 -26 vvcurveto
            -118 71 -60 134 115 150 45 166 57 -42 callgsubr
            -10 10 29 12 1 16 4 19 hvcurveto
            return
          </CharString>
          <CharString index="208">
            88 267 53 callsubr
            81 callgsubr
            -109 -125 -39 -172 -59 251 callgsubr
            18 16 -9 -29 -12 -3 -16 -6 -20 hvcurveto
            return
          </CharString>
          <CharString index="209">
            110 -8 -21 29 41 545 41 577 35 hstemhm
            782 413 -401 408 -205 410 hintmask 01110010
            return
          </CharString>
          <CharString index="210">
            hflex1
            hintmask 10111000
            31 callgsubr
            return
          </CharString>
          <CharString index="211">
            -2 -4 80 hvcurveto
            10 119 callsubr
            return
          </CharString>
          <CharString index="212">
            41 9 -21 510 41 686 318 callgsubr
            45 416 return
          </CharString>
          <CharString index="213">
            37 126 -21 1214 41 60 34 hstem
            -168 412 return
          </CharString>
          <CharString index="214">
            41 9 -21 582 41 819 318 callgsubr
            61 416 return
          </CharString>
          <CharString index="215">
            793 rmoveto
            -78 59 -64 107 114 92 74 133 125 -77 109 -158 -37 -53 -13 -35 -41 vhcurveto
            -120 -102 41 -281 -235 -47 285 1014 rcurveline
            -162 -53 -118 -29 -224 -2 rrcurveto
            return
          </CharString>
          <CharString index="216">
            rmoveto
            -50 callsubr
            return
          </CharString>
          <CharString index="217">
            121 21 90 82 123 vvcurveto
            96 -72 55 -110 -125 -105 331 callgsubr
            95 -88 170 164 89 99 140 93 vhcurveto
            559 751 121 163 51 52 98 28 202 callsubr
            return
          </CharString>
          <CharString index="218">
            -133 -2 -135 return
          </CharString>
          <CharString index="219">
            -392 296 callgsubr
            96 41 807 21 116 -20 hstemhm
            88 150 return
          </CharString>
          <CharString index="220">
            -29 -224 -2 rlinecurve
            -14 36 callgsubr
            return
          </CharString>
          <CharString index="221">
            -129 -139 -96 -238 -80 hvcurveto
            37 -10 rlineto
            return
          </CharString>
          <CharString index="222">
            -145 -156 -97 -237 -88 hvcurveto
            37 -11 rlineto
            return
          </CharString>
          <CharString index="223">
            55 141 94 -45 66 -109 return
          </CharString>
          <CharString index="224">
            529 -152 106 callsubr
            1405 411 vstem
            return
          </CharString>
          <CharString index="225">
            -37 7 -34 17 -28 vhcurveto
            -47 28 64 -33 98 hhcurveto
            131 113 162 callgsubr
            57 160 rlineto
            return
          </CharString>
          <CharString index="226">
            41 rlineto
            -98 4 -40 92 callgsubr
            return
          </CharString>
          <CharString index="227">
            -494 43 95 -21 return
          </CharString>
          <CharString index="228">
            106 166 vvcurveto
            96 -84 35 -74 vhcurveto
            endchar
          </CharString>
          <CharString index="229">
            vstem
            1051 4 rmoveto
            270 110 -80 -233 -25 -2 -27 -2 -28 hvcurveto
            46 hlineto
            10 55 6 31 10 41 25 98 26 103 39 102 rrcurveto
            -63 323 callsubr
            return
          </CharString>
          <CharString index="230">
            -376 -29 127 953 41 hstem
            4 341 callgsubr
            379 vstem
            return
          </CharString>
          <CharString index="231">
            -2 callsubr
            34 return
          </CharString>
          <CharString index="232">
            -4 111 callsubr
            return
          </CharString>
          <CharString index="233">
            258 918 rlineto
            return
          </CharString>
          <CharString index="234">
            115 43 41 14 24 hhcurveto
            14 21 -4 -33 -12 -3 -16 -7 -21 hvcurveto
            -199 -608 rlineto
            -17 -53 -9 -46 -40 vvcurveto
            -113 69 -58 123 180 128 79 384 160 vhcurveto
            return
          </CharString>
          <CharString index="235">
            217 rmoveto
            -121 -45 -45 -8 -14 hhcurveto
            -19 -20 12 36 10 2 13 4 15 hvcurveto
            432 1454 339 callgsubr
            -158 -3 -120 -35 -92 -66 return
          </CharString>
          <CharString index="236">
            1677 rmoveto
            12 52 rlineto
            -884 hlineto
            -13 -52 rlineto
            return
          </CharString>
          <CharString index="237">
            -22 34 rlineto
            -26 -56 -51 -13 -39 hhcurveto
            -41 -18 17 37 return
          </CharString>
          <CharString index="238">
            -30 27 rlineto
            -33 -35 -47 -29 -39 hhcurveto
            -29 -18 17 33 return
          </CharString>
          <CharString index="239">
            1473 rmoveto
            12 51 rlineto
            -884 hlineto
            -13 -51 rlineto
            return
          </CharString>
          <CharString index="240" raw="1">
            1ed90ad8 1d0b  
          </CharString>
          <CharString index="241">
            247 callgsubr
            222 callgsubr
            return
          </CharString>
          <CharString index="242">
            -21 1237 318 callgsubr
            return
          </CharString>
          <CharString index="243">
            rmoveto
            197 callgsubr
            4 return
          </CharString>
          <CharString index="244">
            47 559 41 551 47 return
          </CharString>
          <CharString index="245">
            4 -39 12 60 vvcurveto
            return
          </CharString>
          <CharString index="246">
            150 31 20 return
          </CharString>
          <CharString index="247">
            -86 -31 -38 -45 -58 hhcurveto
            -42 -24 24 55 14 2 16 3 18 hvcurveto
            return
          </CharString>
          <CharString index="248">
            128 483 -40 callsubr
            return
          </CharString>
          <CharString index="249">
            179 -8 -21 29 41 568 77 518 41 -6 35 hstemhm
            1178 405 hintmask 01010100
            return
          </CharString>
          <CharString index="250">
            131 492 rlineto
            return
          </CharString>
          <CharString index="251">
            758 rmoveto
            -477 hlineto
            -19 -62 rlineto
            477 hlineto
            -137 -481 rlineto
            74 hlineto
            137 481 rlineto
            475 hlineto
            19 62 rlineto
            -475 hlineto
            137 483 rlineto
            -74 hlineto
            return
          </CharString>
          <CharString index="252">
            16 7 21 hvcurveto
            return
          </CharString>
          <CharString index="253">
            43 281 321 208 289 -136 24 594 43 hintmask 0000000000000000
            hintmask 1101111101000000
            return
          </CharString>
          <CharString index="254">
            hlineto
            -369 -1245 204 callgsubr
            return
          </CharString>
          <CharString index="255">
            564 11 -21 1214 41 hstem
            123 1991 vstem
            return
          </CharString>
          <CharString index="256">
            753 11 190 callgsubr
            hstem
            176 2189 vstem
            return
          </CharString>
          <CharString index="257" raw="1">
            f7229119 958f0a0b  
          </CharString>
          <CharString index="258">
            -162 -53 -163 -29 -224 -2 return
          </CharString>
          <CharString index="259">
            hstem
            -6 383 387 266 vstem
            return
          </CharString>
          <CharString index="260">
            135 callgsubr
            rlinecurve
            return
          </CharString>
          <CharString index="261">
            -5 callgsubr
            vhcurveto
            return
          </CharString>
          <CharString index="262">
            236 callsubr
            149 return
          </CharString>
          <CharString index="263">
            1927 43 hstem
            return
          </CharString>
          <CharString index="264">
            201 188 164 176 94 hvcurveto
            return
          </CharString>
          <CharString index="265">
            28 callgsubr
            84 4 return
          </CharString>
          <CharString index="266">
            1384 rmoveto
            -88 61 -47 119 142 110 84 129 50 -29 41 -54 22 vhcurveto
            20 -46 -63 7 -56 hhcurveto
            -221 -166 -23 -84 -157 hvcurveto
            return
          </CharString>
          <CharString index="267">
            -28 -46 21 -45 hhcurveto
            -28 -2 callgsubr
            return
          </CharString>
          <CharString index="268">
            131 callgsubr
            endchar
          </CharString>
          <CharString index="269">
            41 1368 41 return
          </CharString>
          <CharString index="270">
            -139 -2 -143 return
          </CharString>
          <CharString index="271">
            rmoveto
            -63 -45 30 76 hvcurveto
            248 528 139 277 vvcurveto
            110 -123 45 -147 -250 -185 -127 -254 -108 vhcurveto
            31 -10 rlineto
            return
          </CharString>
          <CharString index="272">
            811 39 150 35 20 133 6 202 callsubr
            return
          </CharString>
          <CharString index="273">
            42 43 vvcurveto
            23 -7 23 return
          </CharString>
          <CharString index="274">
            225 -76 226 hstemhm
            return
          </CharString>
          <CharString index="275">
            -215 -811 return
          </CharString>
          <CharString index="276">
            175 callgsubr
            92 4 160 2 152 155 148 -2 82 305 callgsubr
            -98 92 callsubr
            6 32 12 43 vhcurveto
            return
          </CharString>
          <CharString index="277">
            87 0 41 1114 342 callsubr
            115 285 callsubr
            hintmask 10111000
            return
          </CharString>
          <CharString index="278">
            37 callsubr
            25 166 callsubr
            -15 return
          </CharString>
          <CharString index="279">
            237 -8 -21 29 41 671 85 612 41 -6 35 hstemhm
            -96 1777 return
          </CharString>
          <CharString index="280">
            176 530 53 callsubr
            return
          </CharString>
          <CharString index="281">
            -176 -530 rlineto
            return
          </CharString>
          <CharString index="282">
            hflex1
            -8 -41 rlineto
            return
          </CharString>
          <CharString index="283">
            28 -28 -33 12 -34 hhcurveto
            -49 -49 -25 -33 -33 hvcurveto
            -94 -94 -31 -136 -137 -219 21 -20 rcurveline
            19 callgsubr
            return
          </CharString>
          <CharString index="284">
            123 -47 76 -109 vhcurveto
            endchar
          </CharString>
          <CharString index="285">
            116 callgsubr
            78 4 159 2 95 161 82 -6 84 hflex1
            633 404 352 424 return
          </CharString>
          <CharString index="286">
            84 callgsubr
            92 -64 48 -118 256 callgsubr
            return
          </CharString>
          <CharString index="287">
            175 callsubr
            99 -4 39 307 callgsubr
            return
          </CharString>
          <CharString index="288">
            279 callsubr
            -108 return
          </CharString>
          <CharString index="289">
            hvcurveto
            24 callgsubr
            return
          </CharString>
          <CharString index="290">
            662 41 653 47 return
          </CharString>
          <CharString index="291">
            -120 61 -48 105 131 98 91 127 88 -57 47 -103 -55 -49 -23 -41 -39 vhcurveto
            8 131 107 103 110 47 -10 37 rcurveline
            return
          </CharString>
          <CharString index="292" raw="1">
            ee87b27f 0b  
          </CharString>
          <CharString index="293">
            252 callsubr
            123 114 45 callgsubr
            return
          </CharString>
          <CharString index="294">
            -38 callsubr
            -61 callsubr
            168 callsubr
            -92 callgsubr
            return
          </CharString>
          <CharString index="295">
            rmoveto
            -18 -62 rlineto
            1026 hlineto
            18 62 rlineto
            return
          </CharString>
          <CharString index="296">
            -385 104 -83 -21 return
          </CharString>
          <CharString index="297">
            107 rrcurveto
            -45 hlineto
            return
          </CharString>
          <CharString index="298">
            871 1556 rmoveto
            251 callsubr
            -88 61 -48 119 hvcurveto
            return
          </CharString>
          <CharString index="299">
            -155 -8 -21 50 280 callgsubr
            return
          </CharString>
          <CharString index="300">
            rmoveto
            -223 127 -125 238 vhcurveto
            hintmask 11101000
            491 222 451 321 224 -127 125 -238 hvcurveto
            return
          </CharString>
          <CharString index="301">
            141 107 -6 104 hflex1
            404 276 337 callgsubr
            -436 hvcurveto
            -176 -682 rmoveto
            return
          </CharString>
          <CharString index="302">
            240 -50 238 90 246 -129 229 hintmask 00000000
            hintmask 11010100
            return
          </CharString>
          <CharString index="303">
            238 41 133 return
          </CharString>
          <CharString index="304">
            -121 -35 -55 hhcurveto
            return
          </CharString>
          <CharString index="305">
            -148 -327 0 return
          </CharString>
          <CharString index="306">
            rlineto
            -17 -53 -9 -46 -40 vvcurveto
            -113 69 -58 123 180 128 79 384 160 vhcurveto
            -46 -176 rlineto
            -10 return
          </CharString>
          <CharString index="307">
            778 1628 71 callgsubr
            return
          </CharString>
          <CharString index="308">
            hstemhm
            -219 364 -69 342 return
          </CharString>
          <CharString index="309">
            rlinecurve
            10 41 rlineto
            return
          </CharString>
          <CharString index="310">
            rlineto
            -16 -55 -8 -48 -42 vvcurveto
            -138 83 -70 133 96 134 35 176 61 vhcurveto
            78 callsubr
            -39 hlineto
            return
          </CharString>
          <CharString index="311">
            63 35 29 61 49 vvcurveto
            70 -59 67 -97 -100 -80 -71 -95 -94 return
          </CharString>
          <CharString index="312">
            37 96 rrcurveto
            -129 -6 -170 0 -125 return
          </CharString>
          <CharString index="313">
            -94 -41 -88 -80 -112 vvcurveto
            return
          </CharString>
          <CharString index="314">
            31 21 318 callsubr
            return
          </CharString>
          <CharString index="315">
            -147 -328 0 return
          </CharString>
          <CharString index="316">
            -47 12 14 -33 vhcurveto
            133 35 135 102 142 vvcurveto
            90 -55 47 -96 -146 -133 -111 -147 return
          </CharString>
          <CharString index="317">
            270 1016 return
          </CharString>
          <CharString index="318">
            -20 172 -31 -272 156 hhcurveto
            132 75 194 345 116 hvcurveto
            58 161 rlineto
            endchar
          </CharString>
          <CharString index="319">
            -39 -150 -49 189 callgsubr
            return
          </CharString>
          <CharString index="320">
            -1016 -85 callsubr
            return
          </CharString>
          <CharString index="321">
            75 callgsubr
            hstem
            850 45 vstem
            return
          </CharString>
          <CharString index="322">
            45 hlineto
            24 135 return
          </CharString>
          <CharString index="323">
            -125 rlineto
            -98 -36 -35 -31 -41 hhcurveto
            -22 -9 8 19 14 5 19 7 26 hvcurveto
            126 callsubr
            return
          </CharString>
          <CharString index="324">
            hhcurveto
            -391 -234 -446 -313 -263 162 -88 203 469 244 428 396 return
          </CharString>
          <CharString index="325">
            84 -27 72 78 100 33 86 88 hvcurveto
            -24 29 rlineto
            -70 -78 -70 -37 -82 hhcurveto
            -74 -45 31 71 152 return
          </CharString>
          <CharString index="326">
            246 -180 242 hintmask 00000000
            hintmask 11010000
            return
          </CharString>
          <CharString index="327">
            394 34 254 165 252 vvcurveto
            return
          </CharString>
          <CharString index="328">
            4 143 2 156 return
          </CharString>
          <CharString index="329">
            11 43 hvcurveto
            143 callsubr
            121 hlineto
            88 -6 18 -44 -54 -40 -10 -46 -40 vvcurveto
            45 hlineto
            return
          </CharString>
          <CharString index="330">
            hhcurveto
            -31 -33 19 41 -18 hvcurveto
            -35 -19 rlineto
            -153 45 return
          </CharString>
          <CharString index="331">
            14 63 25 342 callgsubr
            hvcurveto
            return
          </CharString>
          <CharString index="332">
            -72 0 -110 -80 -203 return
          </CharString>
          <CharString index="333">
            -2 86 305 callgsubr
            return
          </CharString>
          <CharString index="334">
            175 callgsubr
            80 4 return
          </CharString>
          <CharString index="335">
            72 1161 41 return
          </CharString>
          <CharString index="336">
            -47 -125 rlineto
            return
          </CharString>
          <CharString index="337">
            -198 310 callgsubr
            200 hlineto
            -21 -80 -52 -194 -47 -101 -47 -92 rlinecurve
            -145 -22 return
          </CharString>
          <CharString index="338">
            rlineto
            -151 -39 -30 -25 -123 320 callgsubr
            -82 -34 13 59 25 6 34 12 45 hvcurveto
            return
          </CharString>
          <CharString index="339">
            rmoveto
            -739 hlineto
            -55 -202 rlineto
            739 hlineto
            endchar
          </CharString>
          <CharString index="340">
            1133 rmoveto
            -20 59 -1131 -465 799 -430 33 65 -678 357 rlineto
            return
          </CharString>
          <CharString index="341">
            55 16 60 23 86 12 57 35 190 callsubr
            -119 -45 -43 -111 -123 hhcurveto
            return
          </CharString>
          <CharString index="342">
            -8 330 callsubr
            hstemhm
            7 333 -333 return
          </CharString>
          <CharString index="343">
            210 callsubr
            39 return
          </CharString>
          <CharString index="344">
            2 -43 hflex1
            return
          </CharString>
          <CharString index="345">
            -103 -4 163 callsubr
            -148 274 callsubr
            98 -4 return
          </CharString>
          <CharString index="346">
            2 -75 hflex1
            -11 -41 rlineto
            -72 callsubr
            return
          </CharString>
          <CharString index="347">
            -166 -617 -160 -395 -160 -153 rrcurveto
            -41 -43 -49 -15 -49 hhcurveto
            return
          </CharString>
          <CharString index="348">
            -30 -4 -30 -8 -33 vhcurveto
            -73 -255 rlineto
            -190 hlineto
            -38 callsubr
            188 hlineto
            return
          </CharString>
          <CharString index="349">
            -131 -48 -80 -106 -106 vvcurveto
            -469 59 rmoveto
            return
          </CharString>
          <CharString index="350">
            2 -92 175 callsubr
            return
          </CharString>
          <CharString index="351">
            7 -9 -9 4 -10 hhcurveto
            -37 return
          </CharString>
          <CharString index="352">
            81 -29 228 callsubr
            return
          </CharString>
          <CharString index="353">
            770 rmoveto
            123 463 return
          </CharString>
          <CharString index="354">
            311.330001831 return
          </CharString>
          <CharString index="355">
            139 callgsubr
            vhcurveto
            return
          </CharString>
          <CharString index="356">
            -5 41 -3 46 -1 rlinecurve
            -67 -241 rlineto
            45 hlineto
            67 241 rlineto
            250 return
          </CharString>
          <CharString index="357">
            88 37 45 59 74 vvcurveto
            102 -90 49 -114 -142 -73 -75 -99 -143 return
          </CharString>
          <CharString index="358">
            84 callgsubr
            93 -64 47 -119 -143 319 callgsubr
            return
          </CharString>
          <CharString index="359">
            -10 -37 -6 -37 -34 vvcurveto
            -18 callgsubr
            return
          </CharString>
          <CharString index="360">
            254 131 47 276 43 return
          </CharString>
          <CharString index="361">
            -107 -19 -122 -10 -142 -2 return
          </CharString>
          <CharString index="362">
            86 53 51 33 64 hhcurveto
            return
          </CharString>
          <CharString index="363">
            -72 -67 237 callsubr
            return
          </CharString>
          <CharString index="364">
            -2 84 hflex1
            return
          </CharString>
          <CharString index="365">
            -189 0 41 1362 41 -41 47 hstemhm
            -98 1472 hintmask 11010000
            return
          </CharString>
          <CharString index="366">
            -2 37 hflex1
            hintmask 10110100
            41 vlineto
            -91 7 -35 18 30 vvcurveto
            24 23 32 return
          </CharString>
          <CharString index="367">
            hvcurveto
            -271 -1016 -39 -149 -32 -21 -140 -1 callgsubr
            return
          </CharString>
          <CharString index="368">
            -132 -29 127 -106 -21 1073 48 return
          </CharString>
          <CharString index="369">
            hvcurveto
            121 24 98 119 129 vvcurveto
            return
          </CharString>
          <CharString index="370">
            86 4 166 2 return
          </CharString>
          <CharString index="371">
            101 320 callsubr
            return
          </CharString>
          <CharString index="372">
            -156 hhcurveto
            endchar
          </CharString>
          <CharString index="373">
            90 callsubr
            hstem
            -197 1420 vstem
            return
          </CharString>
          <CharString index="374">
            218 189 135 176 98 vvcurveto
            10 0 10 -2 5 vhcurveto
            return
          </CharString>
          <CharString index="375">
            37 rrcurveto
            -45 hlineto
            return
          </CharString>
          <CharString index="376">
            hvcurveto
            -38 callsubr
            return
          </CharString>
          <CharString index="377">
            rmoveto
            -46 -40 -12 -35 -43 hvcurveto
            -72 -58 -56 -103 -56 -120 rrcurveto
            return
          </CharString>
          <CharString index="378">
            rcurveline
            343 hlineto
            10 41 rlineto
            -343 hlineto
            1 2 74 272 return
          </CharString>
          <CharString index="379">
            -113 -88 72 -176 hhcurveto
            -205 -129 -98 -117 hvcurveto
            return
          </CharString>
          <CharString index="380">
            87 callgsubr
            hstemhm
            return
          </CharString>
          <CharString index="381">
            -139 2 -76 hflex1
            -38 callsubr
            return
          </CharString>
          <CharString index="382">
            -368 -21 389 41 1368 return
          </CharString>
          <CharString index="383">
            247 252 246 vstem
            return
          </CharString>
          <CharString index="384">
            -38 callsubr
            98 -4 41 -12 return
          </CharString>
          <CharString index="385">
            92 -49 102 18 240 -74 return
          </CharString>
          <CharString index="386">
            104 93 callgsubr
            return
          </CharString>
          <CharString index="387">
            -1366 258 callgsubr
            return
          </CharString>
          <CharString index="388">
            142 6 202 callsubr
            return
          </CharString>
          <CharString index="389">
            9 -4 10 -8 8 vhcurveto
            return
          </CharString>
          <CharString index="390">
            hvcurveto
            174 callsubr
            return
          </CharString>
          <CharString index="391">
            -57 -72 -90 -29 -20 hvcurveto
            return
          </CharString>
          <CharString index="392">
            383 872 404 return
          </CharString>
          <CharString index="393">
            -105 139 callgsubr
            return
          </CharString>
          <CharString index="394">
            -102 294 callsubr
            return
          </CharString>
          <CharString index="395">
            1479 rmoveto
            return
          </CharString>
          <CharString index="396">
            rlineto
            hintmask 10110100
            -76 -86 -61 -43 -39 -2 rrcurveto
            hintmask 01110100
            -41 vlineto
            return
          </CharString>
          <CharString index="397">
            rmoveto
            -31 -8 17 108 355 88 548 187 9 return
          </CharString>
          <CharString index="398">
            -38 callgsubr
            -24 hhcurveto
            -18 return
          </CharString>
          <CharString index="399">
            rrcurveto
            35 vlineto
            -207 -96 -115 -111 -61 -164 rrcurveto
            return
          </CharString>
          <CharString index="400">
            -58 -62 vvcurveto
            -356 -129 -494 -148 vhcurveto
            endchar
          </CharString>
          <CharString index="401">
            -4 -140 -2 return
          </CharString>
          <CharString index="402">
            53 37 96 rrcurveto
            return
          </CharString>
          <CharString index="403">
            282 -176 346 -112 315 hintmask 0000000000000000
            return
          </CharString>
          <CharString index="404">
            1286 1260 rmoveto
            -74 -26 -17 -35 -26 hhcurveto
            return
          </CharString>
          <CharString index="405">
            rrcurveto
            35 hlineto
            94 207 135 118 195 58 return
          </CharString>
          <CharString index="406">
            hlineto
            140 303 rlineto
            -49 hlineto
            -140 -303 rlineto
            return
          </CharString>
          <CharString index="407">
            -863 -385 49 hstem
            295 262 vstem
            330 return
          </CharString>
          <CharString index="408">
            225 callsubr
            rrcurveto
            return
          </CharString>
          <CharString index="409">
            -16 callgsubr
            -25 hhcurveto
            -13 return
          </CharString>
          <CharString index="410">
            -2 -156 197 callgsubr
            return
          </CharString>
          <CharString index="411">
            120 callsubr
            369 -21 return
          </CharString>
          <CharString index="412">
            84 131 123 return
          </CharString>
          <CharString index="413">
            26 74 vvcurveto
            24 5 return
          </CharString>
          <CharString index="414">
            -385 49 307 return
          </CharString>
          <CharString index="415">
            0 41 668 41 return
          </CharString>
          <CharString index="416">
            41 508 41 return
          </CharString>
          <CharString index="417">
            -2 -57 hhcurveto
            endchar
          </CharString>
          <CharString index="418">
            11 43 hvcurveto
            104 389 rlineto
            115 hlineto
            88 -6 return
          </CharString>
          <CharString index="419">
            -29 27 608 27 264 27 608 27 hstemhm
            return
          </CharString>
          <CharString index="420">
            -1366 274 callgsubr
            return
          </CharString>
          <CharString index="421">
            1264 rmoveto
            -162 111 -92 180 vhcurveto
            return
          </CharString>
          <CharString index="422">
            2 -82 hflex1
            -10 -41 return
          </CharString>
          <CharString index="423">
            37 45 343 callsubr
            return
          </CharString>
          <CharString index="424">
            hstemhm
            -43 272 return
          </CharString>
          <CharString index="425">
            -9 -16 18 hvcurveto
            return
          </CharString>
          <CharString index="426">
            54 37 96 rrcurveto
            return
          </CharString>
          <CharString index="427">
            104 55 141 return
          </CharString>
          <CharString index="428">
            -145 -150 2 -80 hflex1
            -38 callsubr
            return
          </CharString>
          <CharString index="429">
            -82 55 -43 -73 vvcurveto
            -31 -7 -18 -10 -20 vhcurveto
            return
          </CharString>
          <CharString index="430">
            hlineto
            -98 -40 224 callsubr
            return
          </CharString>
          <CharString index="431">
            -482 -29 185 745 180 0 -20 return
          </CharString>
          <CharString index="432">
            96 rrcurveto
            -36 callsubr
            return
          </CharString>
          <CharString index="433">
            -195 57 -135 119 -94 207 rrcurveto
            return
          </CharString>
          <CharString index="434">
            -345 21 -21 1051 41 return
          </CharString>
          <CharString index="435">
            vvcurveto
            -24 -4 -28 -8 -33 vhcurveto
            return
          </CharString>
          <CharString index="436">
            275 -115 275 hstemhm
            return
          </CharString>
          <CharString index="437">
            -21 1530 43 return
          </CharString>
          <CharString index="438">
            22 hvcurveto
            -8 -39 rlineto
            return
          </CharString>
          <CharString index="439">
            29 264 80 hstemhm
            return
          </CharString>
          <CharString index="440">
            -552 -111 39 1389 39 hstem
            return
          </CharString>
          <CharString index="441">
            139 callgsubr
            108 callgsubr
            hvcurveto
            return
          </CharString>
          <CharString index="442">
            16 29 6 24 30 74 -49 53 71 vvcurveto
            return
          </CharString>
          <CharString index="443">
            -82 63 -49 99 135 88 94 98 62 return
          </CharString>
          <CharString index="444">
            hlineto
            -18 -96 -35 -115 -31 -92 -18 -49 return
          </CharString>
          <CharString index="445">
            hhcurveto
            -5 callgsubr
            hvcurveto
            return
          </CharString>
          <CharString index="446">
            356 -297 335 -124 372 return
          </CharString>
          <CharString index="447">
            hintmask 00000000
            hintmask 11110000
            return
          </CharString>
          <CharString index="448">
            1225 rmoveto
            return
          </CharString>
          <CharString index="449">
            41 21 36 hstemhm
            return
          </CharString>
          <CharString index="450">
            57 78 vvcurveto
            100 return
          </CharString>
          <CharString index="451">
            100 rrcurveto
            -45 hlineto
            return
          </CharString>
        <CharString name=".notdef">
          -216 0 61 1459 61 hstem
          123 74 757 74 vstem
          1028 1581 rmoveto
          -905 -1581 905 hlineto
          -74 61 rmoveto
          -757 1459 757 hlineto
          endchar
        </CharString>
        <CharString name="A">
          91 callgsubr
          hstem
          -197 1430 vstem
          1051 1460 -105 callgsubr
        </CharString>
        <CharString name="AE">
          497 0 41 -41 155 callgsubr
          -41 41 hstemhm
          -184 313 -313 2158 hintmask 01110010
          1550 1444 rmoveto
          -98 -178 0 2 -177 hvcurveto
          113 137 rlineto
          -53 hlineto
          -113 -137 -71 1 -70 1 -63 2 rlinecurve
          hintmask 01101010
          -11 -41 87 -4 41 -10 9 -44 rlinecurve
          -974 -1179 289 callsubr
          32 4 56 2 49 67 72 259 callsubr
          35 41 vhcurveto
          427 516 rlineto
          323 308 callgsubr
          rlineto
          hintmask 01110010
          -65 callsubr
          -8 -41 rcurveline
          237 6 328 73 callsubr
          14 57 14 54 15 268 callsubr
          -271 -93 -77 -92 -197 hhcurveto
          -109 hlineto
          -96 -38 11 59 24 7 33 222 callsubr
          24 135 13 56 16 59 23 86 12 57 35 190 callsubr
          -119 -45 -43 -110 -123 hhcurveto
          -118 157 callgsubr
          rlineto
          149 39 31 21 135 hhcurveto
          88 hlineto
          126 317 callgsubr
          -48 -10 -57 hvcurveto
          45 hlineto
          4 31 8 47 14 49 15 47 28 99 315 callgsubr
          -728 -694 rmoveto
          -301 hlineto
          441 532 -3 -14 -4 -17 -5 -18 rlinecurve
          endchar
        </CharString>
        <CharString name="Aacute">
          91 callgsubr
          hstem
          -197 1656 vstem
          1444 1915 rmoveto
          51 -28 -49 20 -50 hhcurveto
          -33 -34 -9 -15 -27 hvcurveto
          -119 -64 -67 -120 164 callgsubr
          14 -25 rcurveline
          -25 callsubr
          57 rrcurveto
          63 36 44 46 54 vvcurveto
          17 -5 19 -10 19 vhcurveto
          -393 -455 -105 callgsubr
        </CharString>
        <CharString name="Abreve">
          91 callgsubr
          123 243 hstem
          -197 1709 vstem
          1487 1921 rmoveto
          152 callgsubr
          -168 -96 35 72 -84 hvcurveto
          -31 -17 rlineto
          -184 33 102 -149 201 hhcurveto
          225 213 163 177 107 hvcurveto
          -461 -443 -105 callgsubr
        </CharString>
        <CharString name="Acircumflex">
          91 callgsubr
          hstem
          -197 1627 vstem
          1108 1958 rmoveto
          -129 -137 -227 -138 -248 -77 11 -29 rcurveline
          174 29 159 39 127 43 121 -46 121 -32 205 -33 8 29 rcurveline
          -162 88 -71 104 -52 160 rrcurveto
          -94 -498 -105 callgsubr
        </CharString>
        <CharString name="Adieresis">
          91 callgsubr
          hstem
          551 357 229 callgsubr
          703 1561 rmoveto
          100 105 3 callsubr
          -99 -59 -142 84 callsubr
          hvcurveto
          579 356 rmoveto
          -104 139 callgsubr
          44 callsubr
          94 -45 66 -109 hvcurveto
          -231 -457 -105 callgsubr
        </CharString>
        <CharString name="Agrave">
          91 callgsubr
          hstem
          -197 1430 vstem
          656 1686 rmoveto
          279 callgsubr
          14 25 rcurveline
          -56 callsubr
          395 -226 -105 callgsubr
        </CharString>
        <CharString name="Amacron">
          91 callgsubr
          237 52 hstem
          -197 1618 vstem
          1421 1729 rmoveto
          -884 hlineto
          -13 -52 rlineto
          885 hlineto
          -358 -217 -105 callgsubr
        </CharString>
        <CharString name="Aogonek">
          3 189 callsubr
          385 309 callsubr
          870 -20 hstemhm
          645 281 hintmask 01111100
          1118 3 rmoveto
          41 38 -2 -1 28 hvcurveto
          8 41 -41 2 -51 31 -8 98 rlinecurve
          -82 1288 rlineto
          -23 -3 -26 -2 -27 -26 -28 2 -24 hflex1
          -836 -1175 -118 -166 -52 -56 -79 -22 rlinecurve
          -9 -41 rlineto
          43 4 33 2 58 75 74 -2 141 138 callgsubr
          -110 8 -78 31 71 vvcurveto
          31 15 38 33 48 vhcurveto
          199 281 rlineto
          402 hlineto
          18 -336 rlineto
          1 -9 0 -9 -8 vvcurveto
          -116 -55 -24 -122 -6 vhcurveto
          -9 -41 rlineto
          4 74 135 2 140 hhcurveto
          62 72 -1 -1 67 hvcurveto
          -227 -49 -208 -90 -125 120 callgsubr
          hintmask 10111100
          130 callsubr
          hvcurveto
          hintmask 01111100
          74 61 101 131 55 vhcurveto
          -423 587 rmoveto
          -371 hlineto
          346 489 rlineto
          endchar
        </CharString>
        <CharString name="Aring">
          91 callgsubr
          80 43 329 43 hstem
          775 55 373 53 vstem
          984 343 callgsubr
          98 callgsubr
          -147 -117 78 callgsubr
          18 -432 -105 callgsubr
        </CharString>
        <CharString name="Atilde">
          91 callgsubr
          127 167 callsubr
          -197 1730 hintmask 11110100
          1496 1911 rmoveto
          -86 -53 -52 -33 -63 -158 168 callgsubr
          115 callsubr
          hintmask 11101100
          255 callsubr
          hintmask 11110100
          158 38 -149 216 hhcurveto
          145 156 96 238 88 hvcurveto
          -482 -441 -105 callgsubr
        </CharString>
        <CharString name="B">
          -42 callsubr
        </CharString>
        <CharString name="C">
          83 51 callgsubr
          hintmask 00000000
          hintmask 10011000
          1530 1450 -98 callsubr
        </CharString>
        <CharString name="CR">
          -1367 endchar
        </CharString>
        <CharString name="Cacute">
          83 51 callgsubr
          hintmask 10101000
          927 1581 rmoveto
          -25 callsubr
          57 rrcurveto
          63 36 -98 callgsubr
          -64 -67 -120 164 callgsubr
          rrcurveto
          hintmask 10011000
          617 -156 -98 callsubr
        </CharString>
        <CharString name="Cacute.loclPLK">
          83 51 callgsubr
          hintmask 10101000
          1007 1554 rmoveto
          158 138 215 callgsubr
          -13 callsubr
          rrcurveto
          hintmask 10011000
          548 -119 -98 callsubr
        </CharString>
        <CharString name="Ccaron">
          83 51 callgsubr
          hintmask 10101000
          1208 -11 callsubr
          hintmask 10011000
          322 -377 -98 callsubr
        </CharString>
        <CharString name="Ccedilla">
          83 307 callsubr
          78 -77 77 -28 -21 1421 58 -29 -20 hstemhm
          76 471 139 262 hintmask 00000000
          hintmask 10100111
          1530 1450 rmoveto
          -82 -30 -27 -40 -26 hhcurveto
          -10 -10 6 12 -10 hvcurveto
          hintmask 11001011
          29 callsubr
          -321 172 -195 399 -9 hvcurveto
          -82 -188 rlineto
          -51 callgsubr
          hvcurveto
          hintmask 10101011
          76 -65 33 -93 -41 -49 -10 -15 -37 vhcurveto
          39 89 152 6 127 55 102 71 rlinecurve
          12 17 14 6 11 hhcurveto
          hintmask 10011011
          18 8 -17 -35 -19 -2 -22 -4 -29 hvcurveto
          45 hlineto
          18 104 35 140 68 248 rrcurveto
          -45 hlineto
          -66 -160 -45 -84 -74 -80 rrcurveto
          hintmask 10101011
          142 callgsubr
          hintmask 10100111
          47 219 43 145 41 107 rrcurveto
          endchar
        </CharString>
        <CharString name="Ccircumflex">
          83 51 callgsubr
          hintmask 10101000
          1046 1688 -89 callsubr
          hintmask 10011000
          484 -238 -98 callsubr
        </CharString>
        <CharString name="Cdotaccent">
          83 51 callgsubr
          387 432 hintmask 10101100
          934 54 callsubr
          hintmask 10011100
          596 -242 rmoveto
          -82 -30 -27 -40 -26 hhcurveto
          -10 -10 6 12 -10 hvcurveto
          hintmask 10101100
          29 callsubr
          -328 180 -197 418 164 137 -3 callgsubr
          hintmask 01101100
          18 8 -17 -35 -19 -2 -22 -4 -29 hvcurveto
          45 hlineto
          18 104 35 140 68 248 rrcurveto
          -45 hlineto
          -66 -160 -45 -84 -74 -80 rrcurveto
          hintmask 10101100
          142 callgsubr
          hintmask 10011100
          47 219 43 145 41 107 rrcurveto
          endchar
        </CharString>
        <CharString name="D">
          275 0 37 1376 37 hstem
          1198 422 vstem
          1620 936 4 callgsubr
        </CharString>
        <CharString name="Dcaron">
          275 0 37 1376 37 hstem
          1198 422 vstem
          1126 -11 callsubr
          494 -891 4 callgsubr
        </CharString>
        <CharString name="Dcroat">
          -31 callsubr
        </CharString>
        <CharString name="Delta">
          -228 0 61 1418 -20 hstem
          33 905 vstem
          543 288 callsubr
          -33 hlineto
          -477 -1479 rlineto
          151 4 152 2 151 150 151 -2 150 hflex1
          -844 61 rmoveto
          256 803 219 -803 rlineto
          endchar
        </CharString>
        <CharString name="E">
          75 callsubr
          hstem
          885 45 336 45 vstem
          991 1444 rmoveto
          208 callsubr
          6 -235 hvcurveto
          -11 -41 rlineto
          -106 callsubr
          52 callgsubr
          164 86 -80 -242 -2 hvcurveto
          45 hlineto
          6 33 8 45 12 49 23 92 18 54 37 325 callsubr
          endchar
        </CharString>
        <CharString name="Eacute">
          75 callsubr
          hstem
          885 45 336 45 vstem
          1262 1724 rmoveto
          63 36 -98 callgsubr
          -64 -67 -120 164 callgsubr
          14 -25 rcurveline
          -25 callsubr
          57 rrcurveto
          -271 -280 rmoveto
          208 callsubr
          6 -235 hvcurveto
          -11 -41 rlineto
          -106 callsubr
          52 callgsubr
          164 86 -80 -242 -2 hvcurveto
          45 hlineto
          6 33 8 45 12 49 23 92 18 54 37 325 callsubr
          endchar
        </CharString>
        <CharString name="Ebreve">
          75 callsubr
          -41 41 113 243 hstemhm
          885 45 336 45 hintmask 11101010
          877 1563 rmoveto
          225 213 163 177 107 hvcurveto
          -25 18 rlineto
          152 callgsubr
          -168 -96 35 72 -84 hvcurveto
          -31 -17 rlineto
          -184 33 102 -149 201 hhcurveto
          hintmask 11011110
          -607 -154 rmoveto
          -106 callsubr
          hintmask 11101010
          34 callgsubr
          -129 -6 -170 0 -125 208 callsubr
          -235 hflex1
          endchar
        </CharString>
        <CharString name="Ecaron">
          75 callsubr
          -41 41 hstemhm
          885 45 336 45 hintmask 11100100
          914 -34 callgsubr
          hintmask 11011100
          -607 -147 rmoveto
          -106 callsubr
          hintmask 11100100
          34 callgsubr
          -129 -6 -170 0 -125 208 callsubr
          -235 hflex1
          endchar
        </CharString>
        <CharString name="Ecircumflex">
          75 callsubr
          hstem
          885 45 336 45 vstem
          885 1688 -89 callsubr
          106 -244 rmoveto
          208 callsubr
          6 -235 hvcurveto
          -11 -41 rlineto
          -106 callsubr
          52 callgsubr
          164 86 -80 -242 -2 hvcurveto
          45 hlineto
          6 33 8 45 12 49 23 92 18 54 37 325 callsubr
          endchar
        </CharString>
        <CharString name="Edieresis">
          75 callsubr
          hstemhm
          461 357 67 45 60 356 -80 45 hintmask 11110010
          613 1561 rmoveto
          100 105 3 callsubr
          -99 -59 -142 84 callsubr
          hvcurveto
          hintmask 11111100
          528 hmoveto
          101 104 3 callsubr
          334 callsubr
          -150 -117 rmoveto
          208 callsubr
          6 -235 hvcurveto
          -11 -41 rlineto
          -106 callsubr
          52 callgsubr
          hintmask 11110010
          -48 callsubr
          hintmask 11111100
          -36 callsubr
          endchar
        </CharString>
        <CharString name="Edotaccent">
          75 callsubr
          hstemhm
          691 432 -238 45 336 45 hintmask 11110100
          191 callsubr
          120 -112 rmoveto
          208 callsubr
          6 -235 hvcurveto
          -11 -41 rlineto
          -72 callsubr
          -270 213 callsubr
          237 6 328 -77 callgsubr
          14 51 15 57 14 54 15 37 rrcurveto
          -46 hlineto
          -271 -133 -118 -92 -197 hhcurveto
          -27 -57 callsubr
          143 callsubr
          18 hlineto
          hintmask 11101100
          57 callgsubr
          hintmask 11110100
          -36 callsubr
          endchar
        </CharString>
        <CharString name="Egrave">
          75 callsubr
          hstem
          885 45 336 45 vstem
          566 1686 rmoveto
          279 callgsubr
          14 25 rcurveline
          -56 callsubr
          425 -242 rmoveto
          208 callsubr
          6 -235 hvcurveto
          -11 -41 rlineto
          -106 callsubr
          52 callgsubr
          164 86 -80 -242 -2 hvcurveto
          45 hlineto
          6 33 8 45 12 49 23 92 18 54 37 325 callsubr
          endchar
        </CharString>
        <CharString name="Emacron">
          75 callsubr
          227 52 hstem
          885 45 336 45 vstem
          1319 129 callsubr
          557 -233 rmoveto
          208 callsubr
          6 -235 hvcurveto
          -11 -41 rlineto
          -106 callsubr
          52 callgsubr
          164 86 -80 -242 -2 hvcurveto
          45 hlineto
          6 33 8 45 12 49 23 92 18 54 37 325 callsubr
          endchar
        </CharString>
        <CharString name="Eng">
          138 -385 35 350 41 -30 190 callgsubr
          hstemhm
          -92 1778 -1162 420 hintmask 11011000
          1499 1444 rmoveto
          -72 -71 2 4 -47 hvcurveto
          -11 -41 rlineto
          -72 callsubr
          -176 -670 -633 887 rlineto
          290 callgsubr
          117 -4 44 -14 -64 7 callgsubr
          -31 -10 -39 vhcurveto
          265 callgsubr
          -39 -149 -31 -21 -141 -1 callgsubr
          45 4 78 2 71 72 62 -2 49 hflex1
          8 41 rlineto
          -98 4 -41 12 62 269 callgsubr
          12 42 vhcurveto
          203 754 rlineto
          hintmask 10111000
          717 -981 rlineto
          -150 -32 -54 -190 -172 hhcurveto
          -11 -8 2 2 -8 hvcurveto
          hintmask 11010100
          88 37 49 112 callgsubr
          135 215 67 168 207 44 vhcurveto
          327 1243 -56 callgsubr
          11 41 rlineto
          hintmask 11011000
          -4 -48 -67 -2 -72 hhcurveto
          endchar
        </CharString>
        <CharString name="Eogonek">
          -62 189 callsubr
          385 47 -41 41 183 callsubr
          hstemhm
          594 281 10 45 336 45 hintmask 0101110010000000
          991 1444 rmoveto
          208 callsubr
          6 -235 hvcurveto
          -11 -41 rlineto
          -72 callsubr
          265 callgsubr
          rlineto
          hintmask 0110111010000000
          -65 callsubr
          -8 -41 rcurveline
          6 237 328 0 147 hhcurveto
          120 155 0 -4 130 hvcurveto
          -223 -50 -202 -88 -124 120 callgsubr
          hintmask 1010111010000000
          130 callsubr
          73 59 99 126 56 hvcurveto
          17 -1 322 callgsubr
          15 37 rrcurveto
          -46 hlineto
          hintmask 0101110110000000
          -271 -133 -118 -92 -197 hhcurveto
          -27 -57 callsubr
          143 callsubr
          18 hlineto
          57 callgsubr
          hintmask 0101110010000000
          -36 callsubr
          endchar
        </CharString>
        <CharString name="Eth">
          -31 callsubr
        </CharString>
        <CharString name="Euro">
          44 -29 52 585 41 164 41 569 56 hstemhm
          223 414 209 358 -96 350 hintmask 11111010
          1358 1409 rmoveto
          29 -35 -63 41 -119 hhcurveto
          -385 -292 -307 -318 -143 hvcurveto
          -184 hlineto
          -12 -41 rlineto
          178 hlineto
          -23 -55 -18 -55 -13 -54 rrcurveto
          -167 hlineto
          -12 -41 rlineto
          170 hlineto
          -11 -55 -6 -53 -49 vvcurveto
          -342 180 -138 328 146 callgsubr
          -129 -45 92 213 88 11 95 19 97 hvcurveto
          181 hlineto
          37 41 rlineto
          -209 hlineto
          13 55 15 55 17 54 rrcurveto
          299 hlineto
          35 41 rlineto
          -320 hlineto
          306 107 181 263 183 hhcurveto
          49 48 -20 -23 12 hvcurveto
          hintmask 11111010
          -101 -45 -106 -90 -123 vvcurveto
          -92 61 -67 93 102 94 86 139 84 -35 82 -65 55 vhcurveto
          endchar
        </CharString>
        <CharString name="Euro.smcp">
          -56 -29 52 483 41 164 41 467 55 hstemhm
          182 414 168 358 -178 350 hintmask 11111010
          944 918 rmoveto
          -93 62 -67 92 102 94 86 139 84 -37 82 -63 55 vhcurveto
          29 -35 -61 41 -121 hhcurveto
          -342 -258 -261 -261 -120 hvcurveto
          -148 310 callgsubr
          143 hlineto
          -22 -56 -17 -56 -9 -52 rrcurveto
          -138 hlineto
          -12 -41 rlineto
          144 hlineto
          -2 -19 -1 -18 -18 vvcurveto
          -342 164 -138 303 146 callgsubr
          -100 -33 92 213 56 5 61 10 61 hvcurveto
          167 hlineto
          37 41 rlineto
          -197 hlineto
          10 55 14 55 16 54 rrcurveto
          292 hlineto
          35 41 rlineto
          -314 hlineto
          251 83 142 216 146 hhcurveto
          48 49 -21 -22 12 hvcurveto
          hintmask 11111010
          -100 -46 -107 -90 -122 vvcurveto
          endchar
        </CharString>
        <CharString name="F">
          -132 308 callsubr
          653 41 -41 47 hstemhm
          895 45 hintmask 11101000
          991 1444 rmoveto
          hintmask 11011000
          208 callsubr
          6 -235 hvcurveto
          -11 -41 rlineto
          99 -4 39 -12 -62 vvcurveto
          -24 -6 -32 -11 -42 vhcurveto
          -270 -1016 -63 callsubr
          143 callsubr
          39 hlineto
          120 68 -103 -188 hvcurveto
          209 callgsubr
          18 92 21 84 20 86 14 57 35 190 callsubr
          -139 -61 -107 -90 -125 hhcurveto
          -56 157 callgsubr
          rlineto
          hintmask 11101000
          149 35 28 21 121 hhcurveto
          6 186 callgsubr
          hintmask 11101000
          -36 callsubr
          endchar
        </CharString>
        <CharString name="G">
          192 -29 107 callsubr
          756 41 hintmask 10110110
          729 12 -75 callgsubr
        </CharString>
        <CharString name="Gacute">
          192 -29 107 callsubr
          756 41 hintmask 10110110
          970 1581 rmoveto
          -25 callsubr
          57 rrcurveto
          63 36 -98 callgsubr
          -64 -67 -120 164 callgsubr
          rrcurveto
          -227 -1594 -75 callgsubr
        </CharString>
        <CharString name="Gbreve">
          192 -29 41 9 -21 582 41 819 37 -29 -20 133 243 hstemhm
          61 416 756 41 hintmask 10110111
          1124 -25 callgsubr
          -395 -1794 -28 callgsubr
          hintmask 10101111
          23 callsubr
          hintmask 10110111
          -21 callgsubr
          hintmask 01110111
          -62 callsubr
          hintmask 10110111
          -24 -92 -12 -43 -41 -29 rrcurveto
          -23 -31 -41 -6 -35 hhcurveto
          endchar
        </CharString>
        <CharString name="Gcircumflex">
          192 -29 107 callsubr
          756 41 hintmask 10110110
          1089 1688 -89 callsubr
          -360 -1676 -75 callgsubr
        </CharString>
        <CharString name="Gcommaaccent">
          192 120 callsubr
          348 107 callsubr
          21 377 358 41 hintmask 1110110101000000
          729 12 -28 callgsubr
          hintmask 1110101101000000
          23 callsubr
          hintmask 1110110101000000
          -21 callgsubr
          hintmask 1101110101000000
          -62 callsubr
          hintmask 1110110101000000
          -24 -92 -12 -43 -41 -29 rrcurveto
          -23 -31 -41 -6 -35 hhcurveto
          hintmask 1110110111000000
          -231 -280 rmoveto
          124 callsubr
          vhcurveto
          -70 callsubr
          -119 -100 -72 -110 vhcurveto
          endchar
        </CharString>
        <CharString name="Gdotaccent">
          192 -29 107 callsubr
          455 432 -131 41 hintmask 00000000
          hintmask 10110110
          932 54 callsubr
          -203 -1680 -28 callgsubr
          hintmask 10101101
          23 callsubr
          hintmask 10110101
          -21 callgsubr
          hintmask 01110101
          -62 callsubr
          hintmask 10110101
          -24 -92 -12 -43 -41 -29 rrcurveto
          hintmask 10110110
          -23 -31 -41 -6 -35 hhcurveto
          endchar
        </CharString>
        <CharString name="H">
          366 308 callsubr
          659 41 hstem
          -96 1992 vstem
          1509 1444 136 callsubr
          -82 269 callsubr
          -61 callsubr
          -129 -483 rlineto
          -452 hlineto
          141 callsubr
          -10 callgsubr
          143 callsubr
          452 308 callgsubr
          -39 -149 -32 -21 -140 -54 callgsubr
          -4 -84 -147 193 callgsubr
        </CharString>
        <CharString name="Hbar">
          366 308 callsubr
          301 41 317 41 hstem
          -94 1992 vstem
          1898 1450 rmoveto
          -84 -4 -147 303 callsubr
          -82 -4 callsubr
          -38 -141 rlineto
          -452 hlineto
          37 141 -40 callsubr
          -96 125 callsubr
          -156 -148 -64 callsubr
          -37 -141 rlineto
          -182 hlineto
          -38 callsubr
          181 hlineto
          -222 -834 -41 callsubr
          25 7 32 11 43 vhcurveto
          143 callsubr
          452 308 callgsubr
          -39 -149 -32 -21 -140 -22 callsubr
          222 834 rlineto
          179 hlineto
          11 41 rlineto
          -179 hlineto
          37 141 -56 callgsubr
          -675 -358 rmoveto
          -80 -301 rlineto
          -452 hlineto
          80 301 rlineto
          endchar
        </CharString>
        <CharString name="Hcircumflex">
          366 308 callsubr
          659 41 hstem
          -96 1992 vstem
          1100 1688 -89 callsubr
          409 -244 136 callsubr
          -82 269 callsubr
          -61 callsubr
          -129 -483 rlineto
          -452 hlineto
          141 callsubr
          -10 callgsubr
          143 callsubr
          452 308 callgsubr
          -39 -149 -32 -21 -140 -54 callgsubr
          -4 -84 -147 193 callgsubr
        </CharString>
        <CharString name="I">
          126 callgsubr
          hstem
          -96 1124 vstem
          807 1233 rmoveto
          -104 callsubr
          endchar
        </CharString>
        <CharString name="IJ">
          433 -385 35 350 41 668 41 362 203 -109 307 hstemhm
          195 186 -16 419 hintmask 11110100
          1995 1495 303 callgsubr
          -46 -50 -70 -45 hvcurveto
          -53 -133 -184 -18 -121 hhcurveto
          hintmask 11101100
          -340 -107 198 -366 hhcurveto
          -264 -129 -116 -170 -154 94 -99 151 -45 hvcurveto
          -223 -712 -47 -147 -27 -23 -133 227 callsubr
          135 69 callgsubr
          151 -2 88 138 callgsubr
          -99 4 -43 13 59 vvcurveto
          25 7 32 14 43 vhcurveto
          220 703 65 15 49 22 51 24 rlinecurve
          -14 37 rlineto
          -43 -93 -77 -29 -170 hhcurveto
          -199 -84 66 90 74 53 30 94 hvcurveto
          hintmask 11110010
          191 160 -94 200 hhcurveto
          289 105 145 74 305 hvcurveto
          -272 -167 -206 -145 -132 -269 rrcurveto
          -294 hlineto
          -6 -41 rlineto
          281 hlineto
          -23 -52 -21 -57 -18 -63 -141 -496 rcurveline
          -274 -78 -47 -117 -123 hhcurveto
          -14 -12 0 4 -21 hvcurveto
          88 316 callsubr
          -92 49 -114 -140 -73 -75 -103 -137 151 -45 186 428 191 238 280 72 vhcurveto
          127 496 21 80 rlineto
          183 callgsubr
          -205 hlineto
          73 262 83 216 150 136 rrcurveto
          109 41 41 37 28 vvcurveto
          hintmask 11110100
          9 -5 9 -8 7 vhcurveto
          endchar
        </CharString>
        <CharString name="Iacute">
          126 callgsubr
          hstem
          -96 1293 vstem
          594 1581 rmoveto
          -25 callsubr
          57 rrcurveto
          63 36 -98 callgsubr
          -64 -67 -120 164 callgsubr
          rrcurveto
          227 -373 rmoveto
          -104 callsubr
          endchar
        </CharString>
        <CharString name="Ibreve">
          126 callgsubr
          113 243 hstem
          -96 1346 vstem
          748 -25 callgsubr
          59 -573 rmoveto
          -104 callsubr
          endchar
        </CharString>
        <CharString name="Icircumflex">
          126 callgsubr
          hstem
          -96 1264 vstem
          713 1688 -89 callsubr
          94 -455 rmoveto
          -104 callsubr
          endchar
        </CharString>
        <CharString name="Idieresis">
          126 callgsubr
          hstem
          289 357 229 callgsubr
          289 -7 callsubr
          -11 -483 rmoveto
          -104 callsubr
          endchar
        </CharString>
        <CharString name="Idotaccent">
          126 callgsubr
          hstemhm
          519 432 hintmask 00000000
          hintmask 11100000
          519 54 callsubr
          288 -459 rmoveto
          -104 callsubr
          endchar
        </CharString>
        <CharString name="Igrave">
          126 callgsubr
          hstem
          -96 1124 vstem
          842 1606 rmoveto
          -56 callsubr
          279 callgsubr
          rrcurveto
          -21 -348 rmoveto
          -104 callsubr
          endchar
        </CharString>
        <CharString name="Imacron">
          126 callgsubr
          227 52 hstem
          -96 1255 vstem
          1147 129 callsubr
          545 -444 rmoveto
          -104 callsubr
          endchar
        </CharString>
        <CharString name="Iogonek">
          189 callsubr
          385 162 callsubr
          0 -20 hstemhm
          145 281 hintmask 01101100
          643 1444 rmoveto
          -147 -140 2 4 -75 hvcurveto
          hintmask 01110100
          -11 -41 rlineto
          -72 callsubr
          265 callgsubr
          -92 callgsubr
          4 80 69 callsubr
          hhcurveto
          108 112 -1 -2 86 hvcurveto
          -224 -50 -203 -89 -124 120 callgsubr
          hintmask 10101100
          130 callsubr
          73 60 99 127 56 hvcurveto
          36 -1 8 41 rlineto
          200 callgsubr
          hintmask 01101100
          -4 -102 -140 -2 -143 hhcurveto
          endchar
        </CharString>
        <CharString name="Itilde">
          126 callgsubr
          117 167 callsubr
          -96 1367 hintmask 11101000
          654 1942 rmoveto
          115 callsubr
          hintmask 11011000
          255 callsubr
          hintmask 11101000
          6 callsubr
          153 -709 rmoveto
          -104 callsubr
          endchar
        </CharString>
        <CharString name="J">
          97 callsubr
          1661 1495 -83 callsubr
        </CharString>
        <CharString name="Jcircumflex">
          97 callsubr
          1143 1688 -89 callsubr
          518 -193 -83 callsubr
        </CharString>
        <CharString name="K">
          172 callsubr
          -405 405 hintmask 00000000
          hintmask 11101010
          172 callgsubr
          -88 callsubr
          242 callsubr
          hintmask 01010100
          14 callsubr
          -10 callgsubr
          endchar
        </CharString>
        <CharString name="Kcommaaccent">
          237 304 callsubr
          29 41 671 85 612 41 -6 35 hstemhm
          430 377 469 405 hintmask 1101010110000000
          172 callgsubr
          vhcurveto
          hintmask 1111101110000000
          -88 callsubr
          hintmask 1101010110000000
          -131 -48 -80 -106 -106 vvcurveto
          -619 -1133 rmoveto
          200 callgsubr
          -96 125 callsubr
          -156 -148 -64 callsubr
          265 callgsubr
          -86 callsubr
          -86 vmoveto
          -24 callsubr
          34 hvcurveto
          -70 callsubr
          vhcurveto
          endchar
        </CharString>
        <CharString name="L">
          -103 0 47 1362 41 hstem
          -98 1286 vstem
          9 callgsubr
          endchar
        </CharString>
        <CharString name="Lacute">
          -103 0 47 1362 41 hstem
          -98 1286 vstem
          557 1581 rmoveto
          -25 callsubr
          57 rrcurveto
          63 36 -98 callgsubr
          -64 -67 -120 164 callgsubr
          rrcurveto
          600 -1176 -86 callgsubr
          endchar
        </CharString>
        <CharString name="Lcaron">
          -103 0 47 1362 41 23 -20 hstemhm
          -98 1513 -277 277 hintmask 11010000
          1062 985 rmoveto
          hintmask 10101000
          267 callsubr
          hintmask 11001000
          -13 -58 -65 -12 -107 -26 -27 206 callgsubr
          -26 -135 -78 -191 hvcurveto
          109 -563 -86 callgsubr
          endchar
        </CharString>
        <CharString name="Lcommaaccent">
          -103 120 callsubr
          377 47 1362 41 hstem
          402 377 vstem
          9 callgsubr
          -786 -698 rmoveto
          124 callsubr
          vhcurveto
          -70 callsubr
          -119 -100 -72 -110 vhcurveto
          endchar
        </CharString>
        <CharString name="Ldot">
          -62 0 47 1362 41 hstemhm
          -98 1421 -391 391 hintmask 11100000
          9 callgsubr
          hintmask 11010000
          -256 301 rmoveto
          -83 callgsubr
          endchar
        </CharString>
        <CharString name="Lslash">
          -101 0 47 1362 41 hstem
          -96 1286 vstem
          1145 430 rmoveto
          -285 -117 -201 -98 -137 hhcurveto
          -37 -57 callsubr
          137 517 375 188 12 47 -374 -188 120 452 64 callgsubr
          -127 -2 -135 -156 -152 -64 callsubr
          -179 -672 -167 -84 -12 -47 167 84 -79 -297 -85 callsubr
          237 6 336 0 148 137 -39 callsubr
          endchar
        </CharString>
        <CharString name="M">
          -39 callgsubr
        </CharString>
        <CharString name="N">
          119 callgsubr
          1753 1544 -101 callgsubr
          endchar
        </CharString>
        <CharString name="NULL">
          -1367 endchar
        </CharString>
        <CharString name="Nacute">
          119 callgsubr
          1536 1724 rmoveto
          63 36 -98 callgsubr
          -64 -67 -120 164 callgsubr
          14 -25 rcurveline
          -25 callsubr
          57 rrcurveto
          217 -180 -101 callgsubr
          endchar
        </CharString>
        <CharString name="Nacute.loclPLK">
          119 callgsubr
          1437 1804 rmoveto
          -13 callsubr
          25 -15 rcurveline
          158 138 215 callgsubr
          316 -260 -101 callgsubr
          endchar
        </CharString>
        <CharString name="Ncaron">
          119 callgsubr
          1188 -34 callgsubr
          602 -12 -101 callgsubr
          endchar
        </CharString>
        <CharString name="Ncommaaccent">
          396 120 callsubr
          225 106 callgsubr
          252 377 714 412 vstem
          1753 1544 -101 callgsubr
          -1044 -1630 58 callsubr
          34 hvcurveto
          -70 callsubr
          vhcurveto
          endchar
        </CharString>
        <CharString name="Ntilde">
          396 -152 35 128 190 callgsubr
          59 35 23 167 callsubr
          -174 412 1343 412 hintmask 11110111
          916 1716 rmoveto
          hintmask 11111011
          6 callsubr
          115 callsubr
          hintmask 11110111
          255 callsubr
          837 -172 -101 callgsubr
          endchar
        </CharString>
        <CharString name="O">
          27 callgsubr
          70 463 -94 callsubr
        </CharString>
        <CharString name="OE">
          722 -29 37 -2 41 -26 -21 709 41 653 41 -41 47 -8 37 hstemhm
          70 442 hintmask 01011001
          1776 1444 rmoveto
          -69 0 -142 -1 -139 -70 -70 0 -59 hflex1
          hintmask 10010011
          20 -53 -64 15 -63 hhcurveto
          -590 -387 -564 -452 -313 227 -179 377 76 73 13 20 70 hvcurveto
          hintmask 01011001
          2 166 248 0 92 hhcurveto
          hintmask 00111001
          137 186 0 -6 140 hvcurveto
          14 104 25 107 14 51 14 57 15 54 14 268 callsubr
          hintmask 01011001
          -271 -92 -78 -92 -197 hhcurveto
          -108 hlineto
          -96 -38 11 60 24 6 32 222 callsubr
          25 135 12 56 16 59 23 86 12 57 35 190 callsubr
          -119 -45 -43 -110 -123 hhcurveto
          -118 157 callgsubr
          rlineto
          149 39 31 21 135 hhcurveto
          88 hlineto
          126 317 callgsubr
          -48 -10 -57 hvcurveto
          45 hlineto
          6 33 8 45 13 49 rrcurveto
          hintmask 01010101
          22 92 19 319 callsubr
          hintmask 01011001
          -36 callsubr
          -897 -1331 rmoveto
          hintmask 10010011
          -82 -23 -57 -23 -74 hhcurveto
          -137 -76 160 268 494 250 512 293 94 44 -25 -77 -28 -5 -36 -12 -43 hvcurveto
          endchar
        </CharString>
        <CharString name="Oacute">
          27 callgsubr
          985 1581 rmoveto
          -25 callsubr
          57 rrcurveto
          63 36 -98 callgsubr
          -64 -67 -120 164 callgsubr
          rrcurveto
          -901 -1143 -94 callsubr
        </CharString>
        <CharString name="Oacute.loclPLK">
          27 callgsubr
          1065 1554 rmoveto
          158 138 215 callgsubr
          -13 callsubr
          rrcurveto
          -970 -1106 -94 callsubr
        </CharString>
        <CharString name="Obreve">
          290 -29 37 1434 37 84 243 hstem
          70 442 696 445 vstem
          1139 -25 callgsubr
          -1069 -1343 -94 callsubr
        </CharString>
        <CharString name="Ocircumflex">
          27 callgsubr
          1104 1688 -89 callsubr
          -1034 -1225 -94 callsubr
        </CharString>
        <CharString name="Odieresis">
          290 -29 37 1434 37 hstemhm
          70 442 168 357 171 445 -444 356 hintmask 11111000
          680 1716 rmoveto
          84 callsubr
          100 105 3 callsubr
          -99 -59 -142 vhcurveto
          hintmask 11110100
          529 hmoveto
          44 callsubr
          94 -45 66 224 callgsubr
          -1139 -1253 rmoveto
          -313 227 -179 377 vhcurveto
          hintmask 11111000
          588 391 564 450 315 -230 179 -376 hvcurveto
          hintmask 11110100
          -590 -387 -564 -452 hvcurveto
          958 979 rmoveto
          hintmask 11111000
          105 75 -160 -268 -494 -250 -512 -266 -104 -76 160 268 hvcurveto
          hintmask 11110100
          494 250 512 266 vhcurveto
          endchar
        </CharString>
        <CharString name="Ograve">
          27 callgsubr
          1233 1606 rmoveto
          -56 callsubr
          279 callgsubr
          rrcurveto
          -1149 -1118 -94 callsubr
        </CharString>
        <CharString name="Ohungarumlaut">
          27 callgsubr
          756 -30 callgsubr
          -1133 -1139 -94 callsubr
        </CharString>
        <CharString name="Omacron">
          290 -29 37 1434 37 198 52 hstem
          70 442 696 445 vstem
          1538 129 callsubr
          -583 -1214 -94 callsubr
        </CharString>
        <CharString name="Omega">
          443 0 47 1395 37 hstemhm
          221 389 -366 41 932 389 hintmask 11101000
          913 288 callsubr
          -442 -250 -193 -319 -367 326 -194 231 -359 hvcurveto
          -116 hlineto
          hintmask 11011000
          -181 -137 98 285 -59 hvcurveto
          -47 hlineto
          4 -39 2 -51 -57 vvcurveto
          -56 -4 -114 -11 -113 vhcurveto
          90 6 127 0 89 83 97 -4 114 hflex1
          33 vlineto
          hintmask 11101000
          -75 149 -144 344 400 vvcurveto
          323 78 193 225 226 78 -193 -323 -400 -144 -344 -76 -149 vhcurveto
          -33 vlineto
          115 2 96 4 84 88 127 0 90 hflex1
          -10 113 -4 114 56 vvcurveto
          57 2 51 4 39 vhcurveto
          -47 hlineto
          -285 -59 -137 -98 -181 hhcurveto
          -116 hlineto
          231 359 326 194 367 vvcurveto
          319 -250 193 -443 vhcurveto
          endchar
        </CharString>
        <CharString name="Oslash">
          27 callgsubr
          1671 1556 rmoveto
          -31 27 -193 -202 rlineto
          64 -101 -136 34 -163 hhcurveto
          -590 -387 -564 -452 -158 58 -123 105 -84 hvcurveto
          -215 -219 35 -29 216 222 rlineto
          -66 102 137 -35 166 hhcurveto
          588 391 564 450 162 -61 126 -110 84 hvcurveto
          -454 85 rmoveto
          87 66 -110 -190 21 hvcurveto
          -685 -816 rlineto
          -3 35 -2 36 39 vvcurveto
          494 250 512 266 vhcurveto
          -336 -1434 rmoveto
          -80 -63 94 165 -25 hvcurveto
          682 815 rlineto
          1 -22 1 -23 -23 vvcurveto
          -494 -250 -512 -266 vhcurveto
          endchar
        </CharString>
        <CharString name="Otilde">
          290 -29 37 1434 37 88 167 callsubr
          70 442 696 445 hintmask 11101100
          1045 1942 rmoveto
          115 callsubr
          hintmask 11011100
          255 callsubr
          hintmask 11101100
          6 callsubr
          -975 -1479 -94 callsubr
        </CharString>
        <CharString name="P">
          -5 callsubr
        </CharString>
        <CharString name="Q">
          405 336 callgsubr
          230 67 877 37 hstemhm
          -70 47 181 434 559 47 -27 441 -293 438 hintmask 0000000000000000
          hintmask 1101111010000000
          1399 283 rmoveto
          -133 -95 -84 -121 -119 91 -63 108 64 63 22 45 47 hvcurveto
          -59 -24 -60 -90 -157 hhcurveto
          -179 -176 114 114 -176 hvcurveto
          hintmask 0111111101000000
          479 257 506 443 327 vvcurveto
          246 -284 164 -386 -487 -442 -265 -348 -241 215 -127 278 320 227 168 260 147 -74 96 -125 -125 -104 -98 -133 -109 70 -81 110 72 98 34 109 31 vhcurveto
          -2 -37 -8 -37 -15 -35 rrcurveto
          -125 -51 -129 -92 -160 hhcurveto
          -161 -33 94 134 305 172 344 274 183 98 -154 -272 -436 -234 -328 -348 -188 hvcurveto
          106 -164 -164 98 -167 hhcurveto
          -179 -133 -112 -150 -123 88 -51 125 74 88 17 32 98 hvcurveto
          hintmask 1101111010000000
          -124 145 174 -142 288 hhcurveto
          374 228 242 219 139 -92 68 -121 hvcurveto
          hintmask 0111111101000000
          -1243 -416 rmoveto
          -115 -64 47 68 49 35 28 68 105 87 -68 -82 98 hvcurveto
          -26 -82 -75 -16 -57 hhcurveto
          endchar
        </CharString>
        <CharString name="R">
          97 callgsubr
          1427 248 rmoveto
          -10 -29 rlineto
          hintmask 10111000
          140 callsubr
          hintmask 01110100
          104 callgsubr
          hintmask 01110010
          220 callsubr
          -59 callsubr
          -545 1161 rmoveto
          hintmask 01110010
          150 callgsubr
          149 568 rlineto
          hintmask 10111000
          83 23 28 23 56 hhcurveto
          endchar
        </CharString>
        <CharString name="Racute">
          97 callgsubr
          1264 1724 rmoveto
          63 36 -98 callgsubr
          -64 -67 -120 164 callgsubr
          14 -25 rcurveline
          -25 callsubr
          57 rrcurveto
          163 -1476 rmoveto
          -10 -29 rlineto
          hintmask 10111000
          140 callsubr
          hintmask 01110100
          104 callgsubr
          hintmask 01110010
          220 callsubr
          -59 callsubr
          -545 1161 rmoveto
          hintmask 01110010
          150 callgsubr
          149 568 rlineto
          hintmask 10111000
          83 23 28 23 56 hhcurveto
          endchar
        </CharString>
        <CharString name="Rcaron">
          97 callgsubr
          916 -34 callgsubr
          606 -391 rmoveto
          -59 callsubr
          -48 hlineto
          -10 -29 rlineto
          140 callsubr
          hintmask 01110100
          104 callgsubr
          hintmask 01110010
          220 callsubr
          -662 138 rmoveto
          83 23 28 23 56 hhcurveto
          150 callgsubr
          endchar
        </CharString>
        <CharString name="Rcommaaccent">
          153 120 callsubr
          348 117 -88 41 658 36 674 39 hstemhm
          473 377 -37 411 -362 406 -195 412 hintmask 1101111001000000
          1427 248 rmoveto
          -10 -29 rlineto
          hintmask 1110110100000000
          140 callsubr
          hintmask 1101111010000000
          104 callgsubr
          hintmask 1101111001000000
          220 callsubr
          207 -172 76 -371 vhcurveto
          -86 -84 -4 -143 hhcurveto
          -103 -166 2 4 -79 hvcurveto
          -11 -41 rlineto
          105 -7 32 -22 -51 vvcurveto
          -25 287 callgsubr
          -268 213 callsubr
          82 4 153 2 146 145 125 -2 94 hflex1
          8 41 rlineto
          -106 5 -32 22 49 vvcurveto
          25 9 33 11 42 vhcurveto
          127 482 rlineto
          hintmask 1101111010000000
          152 -7 46 -59 -93 vvcurveto
          -22 -2 -23 -4 -24 vhcurveto
          hintmask 1110110100000000
          -39 -233 rlineto
          -3 -18 -1 -18 -16 vvcurveto
          -134 93 -81 202 197 108 78 172 53 vhcurveto
          9 27 rlineto
          -545 1161 rmoveto
          hintmask 1101111001000000
          150 callgsubr
          149 568 rlineto
          hintmask 1110110100000000
          83 23 28 23 56 hhcurveto
          hintmask 1101111001000000
          -238 -1495 58 callsubr
          34 hvcurveto
          -70 callsubr
          vhcurveto
          endchar
        </CharString>
        <CharString name="S">
          41 callgsubr
          hintmask 00000000
          hintmask 10011000
          1288 1464 -100 callsubr
        </CharString>
        <CharString name="Sacute">
          41 callgsubr
          hintmask 10101000
          723 1581 rmoveto
          -25 callsubr
          57 rrcurveto
          63 36 -98 callgsubr
          -64 -67 -120 164 callgsubr
          rrcurveto
          hintmask 10011000
          579 -142 -100 callsubr
        </CharString>
        <CharString name="Sacute.loclPLK">
          41 callgsubr
          hintmask 10101000
          803 1554 rmoveto
          158 138 215 callgsubr
          -13 callsubr
          rrcurveto
          hintmask 10011000
          510 -105 -100 callsubr
        </CharString>
        <CharString name="Scaron">
          41 callgsubr
          hintmask 10101000
          1004 -11 callsubr
          hintmask 10011000
          284 -363 -100 callsubr
        </CharString>
        <CharString name="Scedilla">
          -120 307 callsubr
          47 -45 45 -11 -21 1437 56 -15 -20 hstemhm
          252 412 -179 262 -83 456 hintmask 0000000000000000
          hintmask 1100011000000000
          299 callgsubr
          hintmask 1100101000000000
          -15 -30 18 10 -23 hvcurveto
          29 -59 -111 66 -192 hhcurveto
          -232 -307 -129 -287 hvcurveto
          hintmask 1100100010000000
          -332 412 -178 -346 vvcurveto
          -107 -50 -82 -190 -210 -124 106 212 48 6 57 13 36 vhcurveto
          -41 hlineto
          hintmask 1001101000000000
          -62 -284 -41 -119 -37 -88 rrcurveto
          41 hlineto
          88 37 14 22 37 hhcurveto
          hintmask 1010100100000000
          17 24 -14 -16 29 hvcurveto
          98 -56 65 -30 156 -7 -82 -190 rcurveline
          -51 callgsubr
          hvcurveto
          hintmask 1100100100000000
          76 -65 33 -93 -41 -49 -10 -15 -37 vhcurveto
          39 88 rlineto
          23 hlineto
          hintmask 1100100010000000
          234 362 115 299 hvcurveto
          hintmask 1100101000000000
          336 -456 221 283 vvcurveto
          145 104 53 117 184 111 -98 -166 -31 -4 -43 -9 -38 vhcurveto
          41 hlineto
          hintmask 1100011000000000
          41 215 51 131 29 71 rrcurveto
          endchar
        </CharString>
        <CharString name="Scircumflex">
          41 callgsubr
          hintmask 10101000
          842 1688 -89 callsubr
          hintmask 10011000
          446 -224 -100 callsubr
        </CharString>
        <CharString name="Scommaaccent">
          -120 120 callsubr
          348 47 -11 -21 1437 56 -15 -20 hstemhm
          252 412 -396 377 19 456 hintmask 0000000000000000
          hintmask 1110011000000000
          299 callgsubr
          hintmask 1110101000000000
          -15 -30 18 10 -23 hvcurveto
          29 -59 -111 66 -192 hhcurveto
          -232 -307 -129 -287 hvcurveto
          hintmask 1110100010000000
          -332 412 -178 -346 vvcurveto
          -107 -50 -82 -190 -210 -124 106 212 48 6 57 13 36 vhcurveto
          -41 hlineto
          hintmask 1101101000000000
          -62 -284 -41 -119 -37 -88 rrcurveto
          41 hlineto
          88 37 14 22 37 hhcurveto
          hintmask 1110100010000000
          17 24 -14 -16 29 hvcurveto
          -64 113 69 -31 215 hhcurveto
          234 362 115 299 hvcurveto
          hintmask 1110101000000000
          336 -456 221 283 vvcurveto
          145 104 53 117 184 111 -98 -166 -31 -4 -43 -9 -38 vhcurveto
          41 hlineto
          hintmask 1110010100000000
          41 215 51 131 29 71 rrcurveto
          -1061 -1732 rmoveto
          124 callsubr
          vhcurveto
          -70 callsubr
          -119 -100 -72 -110 vhcurveto
          endchar
        </CharString>
        <CharString name="T">
          160 callgsubr
          1618 1815 -68 callgsubr
        </CharString>
        <CharString name="Tbar">
          85 308 callsubr
          610 41 0 37 hstemhm
          160 285 callsubr
          hintmask 11101100
          118 callgsubr
          hintmask 11011100
          -65 callgsubr
          98 hhcurveto
          67 81 -5 -6 85 hvcurveto
          -171 -640 rlineto
          -267 hlineto
          -38 callsubr
          266 hlineto
          -125 -471 191 callgsubr
          -120 8 -49 306 callsubr
          29 10 36 vhcurveto
          124 471 rlineto
          269 hlineto
          10 41 rlineto
          -268 hlineto
          hintmask 11101100
          162 611 rlineto
          -1 21 20 0 18 hhcurveto
          144 120 18 37 91 hvcurveto
          110 47 62 74 102 vvcurveto
          91 -78 86 -123 vhcurveto
          endchar
        </CharString>
        <CharString name="Tcaron">
          160 callgsubr
          1032 -34 callgsubr
          623 259 -68 callgsubr
        </CharString>
        <CharString name="Tcedilla">
          56 -385 49 336 41 -20 -21 1360 41 0 37 hstemhm
          160 383 110 262 500 404 hintmask 10110111
          118 callgsubr
          hintmask 10101111
          -60 callgsubr
          4 82 146 2 149 hhcurveto
          -97 -223 -32 callsubr
          54 123 rlineto
          156 151 -2 -4 90 hvcurveto
          hintmask 11010111
          9 41 rlineto
          -120 8 -49 306 callsubr
          29 10 36 vhcurveto
          297 1123 rlineto
          -1 21 20 0 18 hhcurveto
          144 120 18 37 91 hvcurveto
          110 47 62 74 102 vvcurveto
          hintmask 10110111
          91 -78 86 -123 vhcurveto
          endchar
        </CharString>
        <CharString name="Thorn">
          63 0 41 1057 39 272 41 hstem
          1006 432 vstem
          551 270 rmoveto
          528 2 359 236 319 vvcurveto
          187 -170 123 -361 -43 -41 -1 -1 -42 vhcurveto
          26 98 -40 callsubr
          -102 callgsubr
          270 881 rmoveto
          127 72 -103 -135 -270 -146 -279 -297 hvcurveto
          -1 hlineto
          209 787 rlineto
          endchar
        </CharString>
        <CharString name="U">
          64 callsubr
          1208 573 rmoveto
          -23 callgsubr
          hintmask 11100000
          -107 callsubr
        </CharString>
        <CharString name="Uacute">
          64 callsubr
          903 1581 rmoveto
          -25 callsubr
          57 rrcurveto
          63 36 -98 callgsubr
          -64 -67 -120 164 callgsubr
          rrcurveto
          319 -1033 rmoveto
          -23 callgsubr
          hintmask 11100000
          -107 callsubr
        </CharString>
        <CharString name="Ubreve">
          245 callgsubr
          113 243 hstemhm
          144 391 -391 1486 hintmask 11101000
          1057 -25 callgsubr
          151 -1233 rmoveto
          -23 callgsubr
          hintmask 11110000
          -107 callsubr
        </CharString>
        <CharString name="Ucircumflex">
          64 callsubr
          1022 1688 -89 callsubr
          186 -1115 rmoveto
          -23 callgsubr
          hintmask 11100000
          -107 callsubr
        </CharString>
        <CharString name="Udieresis">
          245 callgsubr
          hstem
          144 391 63 357 229 callgsubr
          598 -7 callsubr
          81 -1143 rmoveto
          -23 callgsubr
          -107 callsubr
        </CharString>
        <CharString name="Ugrave">
          64 callsubr
          1151 1606 rmoveto
          -56 callsubr
          279 callgsubr
          rrcurveto
          71 -1008 rmoveto
          -23 callgsubr
          hintmask 11100000
          -107 callsubr
        </CharString>
        <CharString name="Uhungarumlaut">
          64 callsubr
          674 -30 callgsubr
          87 -1029 rmoveto
          -23 callgsubr
          hintmask 11100000
          -107 callsubr
        </CharString>
        <CharString name="Umacron">
          245 callgsubr
          227 52 hstemhm
          144 391 -391 1486 hintmask 11101000
          1456 129 callsubr
          637 -1104 rmoveto
          -23 callgsubr
          hintmask 11110000
          -107 callsubr
        </CharString>
        <CharString name="Uogonek">
          71 189 callsubr
          356 72 1366 41 hstemhm
          144 391 -391 1486 -1276 281 hintmask 01110100
          1458 1444 rmoveto
          -76 -98 2 4 -53 hvcurveto
          -12 -41 rlineto
          115 -17 44 -28 -83 vvcurveto
          -52 -17 -74 -28 -106 vhcurveto
          -125 -476 38 callgsubr
          hintmask 01111000
          -89 -56 58 145 77 16 101 35 131 hvcurveto
          180 678 39 149 31 21 141 15 callsubr
          -151 2 -80 hflex1
          -13 -41 rlineto
          -72 callsubr
          -170 -643 rlineto
          -25 -94 -13 -79 -68 vvcurveto
          -72 14 -59 28 -52 vhcurveto
          -113 62 143 -82 250 hhcurveto
          20 hlineto
          hintmask 01110010
          -171 -52 -136 -78 -101 120 callgsubr
          hintmask 10110010
          130 callsubr
          72 58 98 125 56 hvcurveto
          96 32 85 58 62 73 88 104 63 140 50 190 127 494 rcurveline
          61 231 37 61 131 27 12 41 rcurveline
          hintmask 01110100
          -4 -43 -67 -2 -62 hhcurveto
          endchar
        </CharString>
        <CharString name="Uring">
          245 callgsubr
          70 43 329 43 hstem
          144 391 287 55 373 53 vstem
          1086 1935 rmoveto
          -147 -117 42 callgsubr
          167 -990 rmoveto
          -23 callgsubr
          -107 callsubr
        </CharString>
        <CharString name="Utilde">
          245 callgsubr
          117 167 callsubr
          144 391 -391 1486 hintmask 11100100
          963 1942 rmoveto
          115 callsubr
          hintmask 11010100
          255 callsubr
          hintmask 11100100
          6 callsubr
          245 -1369 rmoveto
          -23 callgsubr
          hintmask 11101000
          -107 callsubr
        </CharString>
        <CharString name="V">
          26 11 190 callgsubr
          hstem
          184 1467 vstem
          1497 1444 rmoveto
          -76 -176 2 4 -39 269 callsubr
          110 -8 75 -29 -71 vvcurveto
          -31 -14 -39 -32 -49 vhcurveto
          -521 -801 -93 856 rlineto
          -2 16 0 14 13 vvcurveto
          103 50 21 116 5 vhcurveto
          10 41 rlineto
          -80 -4 -129 -2 -147 -127 -140 2 -77 hflex1
          -11 -41 39 -2 56 -31 12 -98 rlinecurve
          162 -1288 rlineto
          26 2 25 1 26 25 26 -1 25 hflex1
          764 1175 111 172 61 43 98 29 rlinecurve
          11 41 rlineto
          -4 -43 -54 310 callsubr
        </CharString>
        <CharString name="W">
          149 callsubr
          2212 1444 -96 callgsubr
        </CharString>
        <CharString name="Wacute">
          149 callsubr
          1733 1718 rmoveto
          63 36 -98 callgsubr
          -64 -67 -120 164 callgsubr
          14 -25 rcurveline
          -25 callsubr
          57 rrcurveto
          479 -274 -96 callgsubr
        </CharString>
        <CharString name="Wcircumflex">
          149 callsubr
          1356 1682 -89 callsubr
          856 -238 -96 callgsubr
        </CharString>
        <CharString name="Wdieresis">
          753 11 190 callgsubr
          hstem
          932 357 229 callgsubr
          1084 1555 rmoveto
          100 105 3 callsubr
          -99 -59 -142 84 callsubr
          hvcurveto
          528 hmoveto
          101 104 3 callsubr
          334 callsubr
          600 -111 -96 callgsubr
        </CharString>
        <CharString name="Wgrave">
          149 callsubr
          1037 1680 rmoveto
          279 callgsubr
          14 25 rcurveline
          -56 callsubr
          1175 -236 -96 callgsubr
        </CharString>
        <CharString name="X">
          -53 callsubr
        </CharString>
        <CharString name="Y">
          148 callgsubr
          1509 1479 -95 callgsubr
        </CharString>
        <CharString name="Yacute">
          148 callgsubr
          1378 1724 rmoveto
          63 36 -98 callgsubr
          -64 -67 -120 164 callgsubr
          14 -25 rcurveline
          -25 callsubr
          57 rrcurveto
          131 -245 -95 callgsubr
        </CharString>
        <CharString name="Ycircumflex">
          148 callgsubr
          1001 1688 -89 callsubr
          508 -209 -95 callgsubr
        </CharString>
        <CharString name="Ydieresis">
          222 0 41 1403 35 hstemhm
          577 357 172 356 -125 412 hintmask 11110000
          729 1561 rmoveto
          100 105 3 callsubr
          -99 -59 -142 84 callsubr
          hvcurveto
          528 hmoveto
          101 104 3 callsubr
          334 callsubr
          hintmask 11101000
          252 -82 -95 callgsubr
        </CharString>
        <CharString name="Ygrave">
          148 callgsubr
          682 1686 rmoveto
          279 callgsubr
          14 25 rcurveline
          -56 callsubr
          827 -207 -95 callgsubr
        </CharString>
        <CharString name="Z">
          72 callgsubr
          727 158 hintmask 00000000
          hintmask 01110110
          1470 1460 -97 callsubr
        </CharString>
        <CharString name="Zacute">
          72 callgsubr
          727 158 hintmask 01101110
          1262 1724 rmoveto
          63 36 -98 callgsubr
          -64 -67 -120 164 callgsubr
          14 -25 rcurveline
          -25 callsubr
          57 rrcurveto
          hintmask 01110110
          208 -264 -97 callsubr
        </CharString>
        <CharString name="Zacute.loclPLK">
          72 callgsubr
          727 158 hintmask 01101110
          1163 1804 rmoveto
          -13 callsubr
          25 -15 rcurveline
          158 138 215 callgsubr
          hintmask 01110110
          307 -344 -97 callsubr
        </CharString>
        <CharString name="Zcaron">
          72 callgsubr
          727 158 hintmask 01101110
          914 -34 callgsubr
          hintmask 01110110
          593 -96 -97 callsubr
        </CharString>
        <CharString name="Zdotaccent">
          72 callgsubr
          343 432 -48 158 hintmask 00000000
          hintmask 01110110
          191 callsubr
          599 -96 -78 callgsubr
          hintmask 10110101
          71 callsubr
          -154 66 -145 331 callsubr
          112 167 callgsubr
          -24 -12 -35 vhcurveto
          -103 -102 74 -211 hhcurveto
          -152 -147 -80 -127 -133 hvcurveto
          553 543 rlineto
          336 hlineto
          16 41 rlineto
          -311 hlineto
          567 557 rlineto
          111 42 42 50 34 vvcurveto
          hintmask 01110110
          11 -4 9 -8 7 vhcurveto
          endchar
        </CharString>
        <CharString name="a">
          35 callgsubr
          246 callgsubr
          hintmask 01011100
          1067 332 rmoveto
          -55 callsubr
          276 918 rlineto
          hintmask 01101100
          35 callsubr
          hintmask 01011100
          -90 callgsubr
          hintmask 10011100
          -688 -221 -72 callgsubr
        </CharString>
        <CharString name="a.smcp">
          266 callsubr
          995 1260 -105 callsubr
        </CharString>
        <CharString name="aacute">
          35 callgsubr
          155 -20 236 callgsubr
          1127 1507 rmoveto
          41 42 26 45 43 vvcurveto
          27 -10 26 -24 24 vhcurveto
          176 callsubr
          40 -415 -84 callsubr
        </CharString>
        <CharString name="aacute.smcp">
          90 callsubr
          hstem
          -197 1578 vstem
          1366 1710 rmoveto
          51 -28 -49 20 -50 hhcurveto
          -33 -34 -9 -15 -27 hvcurveto
          -119 -63 -67 -121 164 callgsubr
          14 -25 rcurveline
          -25 callsubr
          58 rrcurveto
          63 35 44 46 54 vvcurveto
          17 -5 19 -10 19 vhcurveto
          -371 -450 -105 callsubr
        </CharString>
        <CharString name="abreve">
          35 callgsubr
          163 244 236 callgsubr
          787 122 callgsubr
          380 -163 -84 callsubr
        </CharString>
        <CharString name="abreve.smcp">
          90 callsubr
          118 244 hstem
          -197 1607 vstem
          1385 1716 rmoveto
          153 callgsubr
          -168 -96 34 72 -84 hvcurveto
          -31 -16 rlineto
          -185 33 102 -149 201 hhcurveto
          225 213 164 176 107 hvcurveto
          -415 -438 -105 callsubr
        </CharString>
        <CharString name="acircumflex">
          35 callgsubr
          178 -20 236 callgsubr
          758 1352 -78 callsubr
          409 -260 -84 callsubr
        </CharString>
        <CharString name="acircumflex.smcp">
          90 callsubr
          hstem
          -197 1555 vstem
          1037 1753 rmoveto
          -129 -137 -228 -137 -247 -78 10 -29 rcurveline
          174 29 160 39 127 43 120 -45 121 -33 205 -33 8 29 rcurveline
          -162 88 -71 104 -51 160 rrcurveto
          -79 -493 -105 callsubr
        </CharString>
        <CharString name="acute">
          -910 1247 -20 hstem
          260 522 vstem
          281 1227 rmoveto
          19 callgsubr
          -81 callsubr
          rrcurveto
          endchar
        </CharString>
        <CharString name="acute.case">
          -804 1581 405 hstem
          41 617 vstem
          55 1581 rmoveto
          -25 callsubr
          57 rrcurveto
          63 36 -98 callgsubr
          -64 -67 -120 164 callgsubr
          rrcurveto
          endchar
        </CharString>
        <CharString name="acute.loclPLK">
          -910 1219 500 hstem
          168 351 vstem
          195 1219 -21 callsubr
          endchar
        </CharString>
        <CharString name="acute.loclPLK.case">
          -1052 1554 481 hstem
          53 383 vstem
          78 1554 rmoveto
          158 138 215 callgsubr
          -13 callsubr
          rrcurveto
          endchar
        </CharString>
        <CharString name="acute.loclPLK.smcp">
          -1052 1350 481 hstem
          53 383 vstem
          78 1350 rmoveto
          158 137 215 callgsubr
          -12 callgsubr
          rrcurveto
          endchar
        </CharString>
        <CharString name="acute.smcp">
          -804 1376 405 hstem
          41 617 vstem
          55 1376 rmoveto
          -25 callsubr
          58 rrcurveto
          63 35 -98 callgsubr
          -63 -67 -121 164 callgsubr
          rrcurveto
          endchar
        </CharString>
        <CharString name="adieresis">
          35 callgsubr
          hstemhm
          -14 385 43 357 -19 19 131 356 hintmask 00000000
          hintmask 01011101
          566 -11 callgsubr
          62 -489 rmoveto
          hintmask 01101011
          35 callsubr
          hintmask 01011011
          -82 callsubr
          hintmask 10011011
          -35 callsubr
        </CharString>
        <CharString name="adieresis.smcp">
          90 callsubr
          hstem
          503 356 229 callgsubr
          654 1356 rmoveto
          107 callgsubr
          108 callgsubr
          hvcurveto
          580 356 rmoveto
          286 callsubr
          84 callsubr
          100 181 callsubr
          hvcurveto
          -239 -452 -105 callsubr
        </CharString>
        <CharString name="ae">
          241 -29 148 872 60 2 39 hstemhm
          -25 385 226 383 387 266 hintmask 10111100
          1622 911 rmoveto
          123 -109 58 -145 -138 -128 -41 -68 -110 vhcurveto
          hintmask 11011100
          58 -35 -66 10 -53 hhcurveto
          -412 -451 -447 -377 -164 82 -92 172 140 143 57 117 97 hvcurveto
          -115 52 130 -59 149 hhcurveto
          76 callgsubr
          hvcurveto
          -33 289 callgsubr
          -110 197 callsubr
          -103 -67 39 159 34 3 35 4 36 hvcurveto
          hintmask 10111100
          308 71 338 171 247 vvcurveto
          -299 142 rmoveto
          20 13 -15 -37 -170 -70 -151 -121 -109 hvcurveto
          -51 -47 -68 -36 -65 -31 rrcurveto
          286 48 177 310 117 hhcurveto
          -737 -793 rmoveto
          -30 4 -27 7 -25 vhcurveto
          -52 -51 -38 -15 -47 hhcurveto
          -49 -52 36 93 hvcurveto
          hintmask 11011100
          387 308 364 221 26 28 -8 -21 18 vhcurveto
          hintmask 10111100
          -229 -158 -146 -279 -265 vvcurveto
          endchar
        </CharString>
        <CharString name="ae.smcp">
          509 0 41 -41 137 callsubr
          -41 41 hstemhm
          -176 313 -313 2093 hintmask 01110010
          1493 1239 rmoveto
          -105 -199 0 2 -191 hvcurveto
          100 113 rlineto
          -54 hlineto
          -99 -112 -57 1 -55 1 -51 1 rlinecurve
          hintmask 01101010
          -10 -41 59 -3 38 -5 21 -17 rlinecurve
          -890 -1007 289 callsubr
          33 4 55 2 49 68 71 259 callsubr
          36 41 vhcurveto
          366 413 rlineto
          344 hlineto
          -104 -389 rlineto
          hintmask 01110010
          -65 callsubr
          -8 -41 rcurveline
          237 6 328 113 callgsubr
          14 57 14 54 15 37 rrcurveto
          -46 hlineto
          292 callgsubr
          59 24 7 33 311 callsubr
          18 -43 -54 -40 -10 -46 -40 vvcurveto
          209 callgsubr
          12 234 callsubr
          -112 hlineto
          102 381 rlineto
          150 39 30 20 135 hhcurveto
          89 hlineto
          125 317 callgsubr
          -47 -10 -57 hvcurveto
          45 hlineto
          5 30 8 47 14 50 14 47 29 98 315 callgsubr
          -702 -592 rmoveto
          -319 hlineto
          437 494 rlineto
          1 -5 0 -5 -5 -71 callgsubr
          endchar
        </CharString>
        <CharString name="agrave">
          35 callgsubr
          hstemhm
          -14 385 84 247 callsubr
          -14.3300018311 19 hintmask 01011010
          817 1241 rmoveto
          hintmask 01011100
          -69 callgsubr
          274 -895 rmoveto
          -55 callsubr
          276 918 rlineto
          hintmask 01101010
          35 callsubr
          hintmask 01011010
          -90 callgsubr
          hintmask 10011010
          -688 -221 -72 callgsubr
        </CharString>
        <CharString name="agrave.smcp">
          266 callsubr
          625 1481 rmoveto
          278 callsubr
          14 25 rcurveline
          -55 callgsubr
          370 -221 -105 callsubr
        </CharString>
        <CharString name="amacron">
          35 callgsubr
          315 51 236 callgsubr
          1199 1458 rmoveto
          -721 hlineto
          -12 -51 rlineto
          720 hlineto
          -19 -315 -84 callsubr
        </CharString>
        <CharString name="amacron.smcp">
          90 callsubr
          233 51 hstem
          -197 1563 vstem
          1366 1524 rmoveto
          -884 hlineto
          -13 -51 rlineto
          885 hlineto
          -359 -213 -105 callsubr
        </CharString>
        <CharString name="ampersand">
          464 -29 193 104 43 627 86 123 37 172 82 6 35 hstemhm
          47 440 -20 227 -28 143 268 47 189 401 -258 43 354 74 hintmask 1111010001011000
          1927 1180 rmoveto
          227 -129 72 -164 -45 -73 -4 -25 -60 vhcurveto
          hintmask 1111010011101000
          -84 -31 -59 -57 -84 vvcurveto
          -94 78 -66 108 105 110 62 108 66 -39 51 -80 31 vhcurveto
          6 17 18 2 21 hhcurveto
          110 92 -60 -106 -139 -159 -39 -115 -35 hvcurveto
          -180 -55 -182 -54 -181 -55 rrcurveto
          -252 -76 -118 -133 -170 vvcurveto
          -182 135 -72 127 143 88 92 68 29 vhcurveto
          -35 14 rlineto
          -53 -25 -73 -78 -119 hhcurveto
          -62 -65 21 78 69 51 49 125 37 hvcurveto
          hintmask 1111011001011000
          145 44 143 42 145 45 rrcurveto
          27 -46 11 -52 -53 vvcurveto
          -275 -285 -106 -253 -279 -152 129 254 198 93 185 118 53 vhcurveto
          -14 29 61 -31 52 hhcurveto
          30 33 12 31 27 -24 16 -50 hvcurveto
          hintmask 1111100101011000
          -24 -55 -4 -8 -50 hvcurveto
          -4 20 -2 21 20 vvcurveto
          172 140 111 131 71 41 -33 -47 -51 -45 -41 -57 vhcurveto
          2 -37 rlineto
          63 84 41 94 90 -77 66 -185 -196 -199 -76 -160 -86 59 -78 146 -39 hvcurveto
          hintmask 1111011001011000
          -389 -71 -236 -217 -279 vvcurveto
          -313 299 -148 373 541 239 310 249 66 -16 60 -31 51 vhcurveto
          hintmask 1111010001011000
          301 92 174 116 265 vvcurveto
          endchar
        </CharString>
        <CharString name="ampersand.smcp">
          372 -29 193 57 39 522 86 115 37 172 82 61 31 hstemhm
          27 440 -102 229 72 184 123 49 106 402 -94 43 172 135 hintmask 1111111011011000
          1786 1090 rmoveto
          202 -141 74 -168 -62 -80 -10 -27 -63 vhcurveto
          hintmask 1111111011101000
          -80 -33 -64 -57 -74 vvcurveto
          -82 78 -55 109 112 103 62 96 67 -49 45 -70 27 vhcurveto
          6 14 33 4 31 hhcurveto
          108 54 -49 -92 -74 -33 -67 -178 -76 hvcurveto
          -459 -197 rlineto
          -182 -78 -133 -81 -168 vvcurveto
          -158 116 -74 133 50 34 10 29 35 vhcurveto
          -20 27 rlineto
          -19 -21 -32 -8 -27 hhcurveto
          -37 -47 16 60 63 53 31 88 37 hvcurveto
          hintmask 1111111011011000
          144 59 141 63 144 59 rrcurveto
          11 -33 5 -35 -35 vvcurveto
          -275 -283 -106 -260 -266 -160 112 228 135 55 135 74 45 vhcurveto
          -12 31 45 -25 43 hhcurveto
          30 33 13 30 27 -24 16 -41 hvcurveto
          hintmask 1111110111011000
          -29 -45 -8 -12 -41 hvcurveto
          -4 18 0 19 18 vvcurveto
          180 135 109 131 74 39 -35 -45 -49 -43 -43 -58 vhcurveto
          2 -37 rlineto
          64 84 41 94 90 -78 66 -184 -197 -198 -76 -160 -86 59 -78 145 -38 hvcurveto
          hintmask 1111111011011000
          -327 -70 -215 -145 -236 vvcurveto
          -268 282 -146 379 553 238 308 251 48 -9 44 -16 41 vhcurveto
          226 102 106 148 177 vvcurveto
          endchar
        </CharString>
        <CharString name="aogonek">
          -175 189 callsubr
          356 140 -119 -21 22 -21 1019 70 -70 101 hstemhm
          -14 385 63 281 37 19 hintmask 0100101111000000
          1067 332 rmoveto
          -55 callsubr
          276 918 rlineto
          hintmask 0100110111000000
          35 callsubr
          hintmask 0101001111000000
          86 -9 -49 32 -70 hhcurveto
          -289 -368 -467 -398 -164 82 -92 172 131 111 55 179 69 hvcurveto
          -1 -13 0 -11 -12 vvcurveto
          hintmask 0100101111000000
          -53 12 -42 22 -31 vhcurveto
          31 -43 53 -25 73 -3 rrcurveto
          -171 -53 -136 -78 -101 133 callgsubr
          hintmask 1010001111000000
          131 callsubr
          71 51 91 109 57 hvcurveto
          72 25 68 55 40 114 51 150 rcurveline
          -688 -221 -72 callgsubr
        </CharString>
        <CharString name="aogonek.smcp">
          -7 189 callsubr
          385 41 426 41 752 -20 hstemhm
          563 280 hintmask 01111100
          1132 3 rmoveto
          31 -1 27 -1 22 -1 11 41 rcurveline
          -41 2 -47 31 -13 98 -127 1088 rcurveline
          -25 -2 -26 -2 -25 -26 -25 2 -26 hflex1
          -781 -975 -127 -160 -45 -49 -77 -35 rlinecurve
          -9 -41 rlineto
          43 4 33 2 58 75 94 -2 121 138 callgsubr
          -136 18 -56 40 56 vvcurveto
          32 20 39 34 42 vhcurveto
          160 199 rlineto
          416 hlineto
          31 -254 rlineto
          2 -14 0 -13 -13 vvcurveto
          -104 -62 -23 -117 -5 vhcurveto
          -38 callsubr
          4 74 135 2 139 hhcurveto
          64 75 -1 -1 68 hvcurveto
          -331 -44 -179 -95 -125 130 callgsubr
          hintmask 10111100
          132 callgsubr
          hvcurveto
          hintmask 01111100
          73 91 105 198 52 vhcurveto
          -463 505 rmoveto
          -378 hlineto
          328 409 rlineto
          endchar
        </CharString>
        <CharString name="approxequal">
          67 276 293 -94 293 -76 293 -94 293 hstemhm
          27 1441 hintmask 00000000
          hintmask 00101000
          1022 692 rmoveto
          156 190 185 282 100 hvcurveto
          -36 6 rlineto
          -131 -82 -97 -49 -98 hhcurveto
          hintmask 00011000
          -213 -86 199 -225 hhcurveto
          -176 -209 -193 -295 -107 hvcurveto
          35 -6 rlineto
          146 98 123 55 123 hhcurveto
          hintmask 00101000
          205 82 -199 217 hhcurveto
          hintmask 10001000
          -160 -416 rmoveto
          176 209 193 295 107 hvcurveto
          -35 6 rlineto
          -145 -98 -123 -56 -123 hhcurveto
          hintmask 01001000
          -205 -82 199 -217 hhcurveto
          -156 -190 -184 -283 -98 hvcurveto
          34 -6 rlineto
          131 82 97 49 98 hhcurveto
          hintmask 10001000
          213 86 -199 225 hhcurveto
          endchar
        </CharString>
        <CharString name="aring">
          35 callgsubr
          133 43 329 43 hstemhm
          -14 385 236 55 90 19 264 53 hintmask 0101111111000000
          816 341 callsubr
          98 callgsubr
          -148 -116 78 callgsubr
          202 -1265 rmoveto
          -55 callsubr
          276 918 rlineto
          hintmask 0110111111000000
          35 callsubr
          hintmask 0101111111000000
          -90 callgsubr
          hintmask 1001111111000000
          -688 -221 -72 callgsubr
        </CharString>
        <CharString name="aring.smcp">
          90 callsubr
          75 43 330 43 hstem
          725 56 373 53 vstem
          934 1315 rmoveto
          144 129 104 129 111 -94 72 -123 -148 -117 -101 -131 -115 91 -69 118 hvcurveto
          50 373 rmoveto
          79 91 -46 -98 -104 -103 -82 -106 -82 -82 49 92 98 92 91 111 hvcurveto
          11 -428 -105 callsubr
        </CharString>
        <CharString name="arrowboth">
          15 524 33 hstem
          51 1280 vstem
          872 924 rmoveto
          58 -122 29 -120 2 -125 rrcurveto
          -539 hlineto
          2 125 29 120 57 122 111 callgsubr
          -56 121 -29 120 -3 125 rrcurveto
          539 hlineto
          -3 -125 -29 -120 -57 -121 rrcurveto
          35 hlineto
          94 207 136 118 194 58 -194 57 -136 119 -94 207 rrcurveto
          endchar
        </CharString>
        <CharString name="arrowdown">
          -355 1 -21 hstem
          489 33 vstem
          506 829 rmoveto
          298 callgsubr
          207 -94 119 -135 57 -195 57 195 119 135 207 94 292 callsubr
          -184 vmoveto
          298 callgsubr
          188 -86 116 -119 62 -168 rrcurveto
          -258 vlineto
          -125 3 -120 29 -121 56 rrcurveto
          -35 vlineto
          207 -94 119 -135 57 -194 57 194 119 135 207 94 rrcurveto
          35 vlineto
          -122 -57 -120 -29 -125 -2 rrcurveto
          256 vlineto
          62 169 116 120 189 86 292 callsubr
          endchar
        </CharString>
        <CharString name="arrowdownleft">
          34 1 -21 490 32 98 33 hstem
          624 32 98 33 vstem
          735 582 rmoveto
          35 76 17 76 83 vvcurveto
          89 -20 96 -42 112 vhcurveto
          -25 -24 rlineto
          36 -95 18 -89 -85 vvcurveto
          -105 -28 -100 -54 -98 vhcurveto
          54 99 100 28 105 hhcurveto
          84 88 -17 -36 95 hvcurveto
          25 24 rlineto
          42 -112 -97 20 -89 hhcurveto
          -82 -76 -17 -34 -77 hvcurveto
          -131 -131 rmoveto
          35 77 17 77 83 vvcurveto
          89 -20 96 -40 110 vhcurveto
          -25 -25 rlineto
          35 -94 18 -88 -84 vvcurveto
          -87 -19 -84 -38 -83 vhcurveto
          -183 -185 -86 92 -64 104 -48 126 rlinecurve
          -24 -24 rlineto
          36 -95 17 -88 -84 vvcurveto
          -105 -28 -100 -54 -99 vhcurveto
          54 98 100 28 105 hhcurveto
          85 89 -18 -36 95 hvcurveto
          24 25 -126 47 -105 64 -91 87 rlinecurve
          183 182 rlineto
          38 84 85 19 89 hhcurveto
          83 87 -17 -35 94 hvcurveto
          25 24 rlineto
          40 -110 -97 20 -89 hhcurveto
          -83 -77 -17 -34 -77 hvcurveto
          endchar
        </CharString>
        <CharString name="arrowdownright">
          34 1 -21 491 32 98 33 456 -20 hstem
          614 33 98 32 vstem
          729 519 rmoveto
          -54 98 -28 100 105 vvcurveto
          84 18 89 36 95 vhcurveto
          -25 24 rlineto
          -42 -112 -20 -96 -89 vvcurveto
          -82 17 -76 35 -77 vhcurveto
          35 -77 -76 17 -83 hhcurveto
          -89 -96 -20 -42 -112 hvcurveto
          25 -25 rlineto
          36 95 89 18 84 hhcurveto
          105 100 -28 -54 98 hvcurveto
          486 57 rmoveto
          -48 -126 -64 -105 -86 -92 -183 185 rcurveline
          -38 83 -19 84 88 vvcurveto
          84 18 88 35 94 vhcurveto
          -25 24 rlineto
          -40 -110 -20 -96 -88 vvcurveto
          -84 17 -77 35 -77 vhcurveto
          35 -77 -78 17 -83 hhcurveto
          -89 -96 -20 -40 -110 hvcurveto
          25 -25 rlineto
          35 94 88 18 83 hhcurveto
          89 84 -20 -38 83 hvcurveto
          184 -182 -91 -87 -105 -64 -126 -47 rlinecurve
          24 -24 rlineto
          35 95 88 18 85 hhcurveto
          105 100 -28 -54 99 hvcurveto
          -54 99 -28 100 105 vvcurveto
          84 17 88 36 95 vhcurveto
          endchar
        </CharString>
        <CharString name="arrowleft">
          28 524 33 hstem
          51 1221 vstem
          717 541 rmoveto
          164 61 110 115 96 207 rrcurveto
          -34 hlineto
          -87 -189 -120 -116 -169 -62 rrcurveto
          -255 hlineto
          2 125 29 120 57 122 111 callgsubr
          -56 121 -29 120 -3 125 rrcurveto
          258 hlineto
          167 -63 119 -114 87 -189 rrcurveto
          34 hlineto
          -96 207 -110 114 -164 62 rrcurveto
          184 hmoveto
          164 61 111 115 96 207 111 callgsubr
          -96 207 -111 114 -164 62 rrcurveto
          endchar
        </CharString>
        <CharString name="arrowright">
          28 524 33 hstem
          123 1221 vstem
          582 541 rmoveto
          326 callsubr
          -35 hlineto
          96 -207 111 -115 164 -61 -164 -62 -111 -114 -96 -207 298 callsubr
          rrcurveto
          303 383 rmoveto
          57 -122 29 -120 2 -125 rrcurveto
          -255 hlineto
          -169 62 -120 116 -87 189 rrcurveto
          -34 hlineto
          96 -207 110 -115 164 -61 -164 -62 -110 -114 -96 -207 rrcurveto
          34 hlineto
          87 189 119 114 167 63 rrcurveto
          258 hlineto
          -3 -125 -29 -120 -56 -121 298 callsubr
          326 callsubr
          endchar
        </CharString>
        <CharString name="arrowup">
          -355 1 -21 hstem
          489 33 vstem
          889 776 rmoveto
          -207 94 -119 136 -57 194 -57 -194 -119 -136 -207 -94 rrcurveto
          -35 vlineto
          121 57 120 29 125 2 rrcurveto
          -257 vlineto
          -62 -168 -116 -119 -188 -86 rrcurveto
          -35 vlineto
          207 96 114 111 62 164 61 -164 115 -111 207 -96 rrcurveto
          35 vlineto
          -189 86 -116 120 -62 169 rrcurveto
          255 vlineto
          125 -2 120 -28 122 -58 rrcurveto
          -383 -303 rmoveto
          -57 -194 -119 -135 -207 -95 rrcurveto
          -34 vlineto
          207 96 114 110 62 164 61 -164 115 -110 207 -96 rrcurveto
          34 vlineto
          -207 95 -119 135 -57 194 rrcurveto
          endchar
        </CharString>
        <CharString name="arrowupleft">
          313 callgsubr
          624 32 98 33 vstem
          1112 676 rmoveto
          -35 -94 -88 -18 -83 hhcurveto
          -89 -84 20 38 -83 hvcurveto
          -184 182 91 87 105 64 126 47 rlinecurve
          -24 24 rlineto
          -35 -95 -88 -18 -85 hhcurveto
          -105 -100 28 54 -99 hvcurveto
          54 -99 28 -100 -105 vvcurveto
          -84 -17 -88 -36 -95 vhcurveto
          24 -25 48 126 64 105 86 92 rlinecurve
          183 -185 rlineto
          38 -83 19 -84 -88 vvcurveto
          -84 -18 -88 -35 -94 vhcurveto
          25 -24 rlineto
          40 110 20 96 88 vvcurveto
          84 -17 77 -35 77 vhcurveto
          -35 77 78 -17 83 hhcurveto
          89 96 20 40 110 hvcurveto
          106 -104 rmoveto
          -36 -95 -89 -18 -84 hhcurveto
          -105 -100 28 54 -98 hvcurveto
          54 -98 28 -100 -105 vvcurveto
          -84 -18 -89 -36 -95 vhcurveto
          25 -24 rlineto
          42 112 20 96 89 vvcurveto
          82 -17 76 -35 77 vhcurveto
          -35 77 76 -17 83 hhcurveto
          89 96 20 42 112 hvcurveto
          endchar
        </CharString>
        <CharString name="arrowupright">
          313 callgsubr
          614 33 98 32 vstem
          1268 1114 rmoveto
          -54 -99 -100 -28 -105 hhcurveto
          -85 -88 18 35 -95 hvcurveto
          -24 -24 126 -47 105 -64 91 -87 rlinecurve
          -184 -182 rlineto
          -38 -83 -84 -20 -89 hhcurveto
          -83 -88 18 35 -94 hvcurveto
          -25 -25 rlineto
          -40 110 96 -20 89 hhcurveto
          83 78 17 35 77 hvcurveto
          -35 -77 -17 -77 -84 vvcurveto
          -88 20 -96 40 -110 vhcurveto
          25 24 rlineto
          -35 94 -18 88 84 vvcurveto
          88 19 84 38 83 vhcurveto
          183 185 86 -92 64 -105 48 -126 rlinecurve
          24 25 rlineto
          -36 95 -17 88 84 vvcurveto
          105 28 100 54 99 vhcurveto
          -1135 -592 rmoveto
          -42 112 96 -20 89 hhcurveto
          83 76 17 35 77 hvcurveto
          -35 -77 -17 -76 -82 vvcurveto
          -89 20 -96 42 -112 vhcurveto
          25 24 rlineto
          -36 95 -18 89 84 vvcurveto
          105 28 100 54 98 vhcurveto
          -54 -98 -100 -28 -105 hhcurveto
          -84 -89 18 36 -95 hvcurveto
          endchar
        </CharString>
        <CharString name="asciicircum">
          -296 1081 -20 hstem
          115 872 vstem
          512 741 rmoveto
          141 -59 162 -45 160 -19 12 31 rcurveline
          -180 94 -100 168 -27 170 rrcurveto
          -37 hlineto
          -113 -170 -198 -170 -217 -94 8 -29 rcurveline
          139 29 150 45 100 49 rrcurveto
          endchar
        </CharString>
        <CharString name="asciicircum.case">
          -462 1067 -20 432 -20 hstem
          -49 1007 vstem
          442 1159 rmoveto
          154 -59 178 -45 172 -19 12 31 rcurveline
          -204 90 -113 160 -31 162 rrcurveto
          -37 hlineto
          -133 -162 -231 -162 -258 -90 8 -29 rcurveline
          180 340 callgsubr
        </CharString>
        <CharString name="asciicircum.smcp">
          -179 1067 -20 432 -20 hstem
          219 1008 vstem
          711 1159 rmoveto
          153 -59 178 -45 172 -19 13 31 rcurveline
          -205 90 -113 160 -30 162 rrcurveto
          -37 hlineto
          -133 -162 -232 -162 -258 -90 8 -29 rcurveline
          181 340 callgsubr
        </CharString>
        <CharString name="asciitilde">
          -50 403 329 callsubr
          74 1181 330 callgsubr
          795 403 12 callgsubr
        </CharString>
        <CharString name="asciitilde.case">
          -257 542 329 callsubr
          19 1181 330 callgsubr
          740 542 12 callgsubr
        </CharString>
        <CharString name="asciitilde.smcp">
          -60 403 329 callsubr
          66 1181 330 callgsubr
          787 403 12 callgsubr
        </CharString>
        <CharString name="asterisk">
          -390 1062 -20 31 -20 27 -20 hstemhm
          173 869 hintmask 00110000
          1034 1278 rmoveto
          34 -10 -26 29 -42 hhcurveto
          -19 -21 -6 -12 -25 hvcurveto
          -71 -37 -78 -92 -120 -114 89 142 72 86 20 74 rrcurveto
          3 12 1 12 10 vvcurveto
          56 -44 21 -48 -58 -65 -29 -82 -21 vhcurveto
          -4 -17 -2 -18 -19 vvcurveto
          hintmask 01010000
          -66 22 -81 15 -108 vhcurveto
          -67 122 -29 88 -55 38 rrcurveto
          13 -19 -19 5 -18 hhcurveto
          -42 -38 -28 -35 -28 hvcurveto
          -23 -27 -16 -32 -30 vvcurveto
          hintmask 00110000
          -25 11 -24 28 -18 vhcurveto
          53 -38 111 -1 141 -22 -160 -23 -100 1 -76 -38 rrcurveto
          -61 -30 -22 -43 -41 vvcurveto
          -14 2 -14 5 -13 vhcurveto
          -34 10 27 -29 42 hhcurveto
          19 21 6 12 25 hvcurveto
          70 38 79 92 122 116 -92 -144 -72 -86 -19 -76 rrcurveto
          -3 -13 -2 -11 -11 vvcurveto
          -55 44 -20 51 55 66 28 82 20 vhcurveto
          5 18 2 18 20 vvcurveto
          hintmask 10010000
          66 -21 79 -15 104 vhcurveto
          66 -119 29 -87 55 -37 rrcurveto
          -13 19 19 -5 18 hhcurveto
          41 39 28 35 28 hvcurveto
          22 27 17 32 30 vvcurveto
          24 -11 24 -28 18 vhcurveto
          -54 37 -107 2 -139 22 156 23 100 0 74 37 rrcurveto
          61 30 23 43 41 vvcurveto
          hintmask 00110000
          15 -3 14 -5 13 vhcurveto
          endchar
        </CharString>
        <CharString name="at">
          421 -289 214 callgsubr
          55 146 callsubr
          1079 53 -81 callgsubr
        </CharString>
        <CharString name="at.case">
          423 -113 214 callgsubr
          102 146 callsubr
          1126 229 -81 callgsubr
        </CharString>
        <CharString name="at.smcp">
          407 -228 214 callgsubr
          61 146 callsubr
          1085 114 -81 callgsubr
        </CharString>
        <CharString name="atilde">
          35 callgsubr
          168 225 -76 225 246 callgsubr
          hintmask 01010111
          600 1409 rmoveto
          hintmask 01011011
          -16 callsubr
          114 callsubr
          hintmask 01010111
          257 callgsubr
          567 -317 rmoveto
          hintmask 01100111
          35 callsubr
          hintmask 01010111
          -82 callsubr
          hintmask 10010111
          -35 callsubr
        </CharString>
        <CharString name="atilde.smcp">
          90 callsubr
          122 167 callsubr
          -197 1625 hintmask 11110100
          1391 1706 rmoveto
          -86 -53 -51 -33 -64 -157 168 callgsubr
          115 callgsubr
          hintmask 11101100
          255 callgsubr
          hintmask 11110100
          158 39 -149 215 hhcurveto
          145 156 96 238 88 hvcurveto
          -433 -436 -105 callsubr
        </CharString>
        <CharString name="b">
          -189 -29 68 -51 -21 36 -21 972 138 0 -20 429 43 hstemhm
          750 380 hintmask 10001110
          850 1092 rmoveto
          -113 -86 -63 -143 -80 hvcurveto
          220 742 2 callsubr
          -376 -1264 rlineto
          hintmask 00101110
          -13 -43 -14 -41 -19 -36 rrcurveto
          hintmask 01001110
          31 -15 rlineto
          hintmask 10001110
          329 callgsubr
          28 -4 -7 26 hvcurveto
          -25 37 58 -19 66 hhcurveto
          420 241 467 320 213 -90 121 -190 hvcurveto
          -473 -1053 rmoveto
          -22 -16 3 6 -16 hvcurveto
          212 716 rlineto
          hintmask 10010110
          114 53 60 76 52 hhcurveto
          33 17 -22 -94 hvcurveto
          hintmask 10001110
          -332 -189 -467 -184 vhcurveto
          endchar
        </CharString>
        <CharString name="b.smcp">
          -37 callsubr
        </CharString>
        <CharString name="backslash">
          -363 328 callgsubr
          268 531 vstem
          799 -29 rmoveto
          -467 1508 rlineto
          -64 hlineto
          463 -1508 rlineto
          endchar
        </CharString>
        <CharString name="bar">
          -542 -378 -21 hstem
          309 246 vstem
          555 -399 rmoveto
          2156 -246 -2156 vlineto
          endchar
        </CharString>
        <CharString name="blacksquare">
          -144 104 852 hstem
          186 813 297 callgsubr
          endchar
        </CharString>
        <CharString name="blacksquare.case">
          -83 303 852 hstem
          254 854 vstem
          1108 1155 254 callgsubr
          endchar
        </CharString>
        <CharString name="blacksquare.smcp">
          -91 197 852 hstem
          217 854 vstem
          1071 1049 254 callgsubr
          endchar
        </CharString>
        <CharString name="braceleft">
          -552 -385 39 932 37 hstemhm
          59 946 -945 347 -241 335 hintmask 11100000
          524 -346 rmoveto
          hintmask 11010000
          -78 2 -39 17 84 vvcurveto
          -2 63 21 103 41 166 rrcurveto
          hintmask 11001000
          22 88 12 72 59 vvcurveto
          179 -109 65 -271 53 vhcurveto
          340 49 170 96 94 371 102 403 35 37 133 2 10 39 rcurveline
          -366 -187 -84 -397 -96 hvcurveto
          -92 -383 -59 -105 -129 -10 rrcurveto
          -11 hlineto
          -6 -37 rlineto
          10 hlineto
          64 -4 31 -33 2 -84 rrcurveto
          -75 -23 -119 -45 -182 vhcurveto
          hintmask 11010000
          -23 -93 -15 -78 -65 vvcurveto
          -169 106 -73 348 4 vhcurveto
          endchar
        </CharString>
        <CharString name="braceleft.case">
          -589 -152 39 818 36 hstemhm
          97 827 -809 328 -240 311 hintmask 11100000
          559 -113 rmoveto
          hintmask 11010000
          -77 2 -39 17 84 vvcurveto
          51 14 94 33 133 vhcurveto
          hintmask 11001000
          16 64 8 55 47 vvcurveto
          173 -110 70 -246 46 vhcurveto
          334 31 149 94 84 375 70 309 27 29 92 2 10 39 rcurveline
          -309 -156 -66 -313 -82 hvcurveto
          -100 -381 -47 -90 -117 -11 rrcurveto
          -10 hlineto
          -6 -36 rlineto
          10 hlineto
          61 -5 33 -32 2 -84 rrcurveto
          -64 -27 -98 -34 -154 vhcurveto
          hintmask 11010000
          -17 -71 -10 -60 -52 vvcurveto
          -168 105 -72 329 3 vhcurveto
          endchar
        </CharString>
        <CharString name="braceleft.smcp">
          -585 -111 39 697 18 hstemhm
          66 389 -312 377 hintmask 11010000
          895 1356 rmoveto
          -344 -168 -64 -295 -82 hvcurveto
          -292 -82 -10 -62 -143 hhcurveto
          -11 hlineto
          -6 -37 rlineto
          10 hlineto
          50 -4 34 -45 -113 vvcurveto
          hintmask 11100000
          -137 -77 -151 -78 vvcurveto
          -133 155 -56 340 vhcurveto
          10 39 rlineto
          -77 2 -39 9 84 vvcurveto
          hintmask 11010000
          116 65 117 115 vvcurveto
          168 -203 55 -206 31 vhcurveto
          237 4 270 84 78 284 80 289 17 29 92 2 rrcurveto
          endchar
        </CharString>
        <CharString name="braceright">
          -554 -364 -21 979 37 932 39 hstemhm
          -188 946 -442 335 -241 347 hintmask 11110000
          293 1563 rmoveto
          hintmask 11100100
          78 -2 39 -17 -84 vvcurveto
          2 -63 -21 -103 -41 -166 rrcurveto
          hintmask 11101000
          -22 -88 -12 -72 -59 vvcurveto
          -179 109 -65 271 -53 vhcurveto
          -340 -49 -170 -96 -94 -371 -102 -403 -35 -37 -133 -2 -10 -39 rcurveline
          366 187 84 397 96 hvcurveto
          92 383 59 105 129 10 rrcurveto
          11 hlineto
          6 37 rlineto
          -10 hlineto
          -64 4 -31 33 -2 84 rrcurveto
          75 23 119 45 182 vhcurveto
          hintmask 11100100
          23 93 15 78 65 vvcurveto
          169 -106 73 -348 -4 vhcurveto
          endchar
        </CharString>
        <CharString name="braceright.case">
          -595 709 36 818 39 hstemhm
          -84 827 -417 311 -240 328 hintmask 11100000
          281 1563 rmoveto
          hintmask 11001000
          77 -2 39 -17 -84 vvcurveto
          -51 -14 -94 -33 -133 vhcurveto
          hintmask 11010000
          -16 -64 -8 -55 -47 vvcurveto
          -173 110 -70 246 -46 vhcurveto
          -334 -31 -149 -94 -84 -375 -70 -309 -27 -29 -92 -2 -10 -39 rcurveline
          309 156 66 313 82 hvcurveto
          100 381 47 90 117 11 rrcurveto
          10 hlineto
          6 36 rlineto
          -10 hlineto
          -61 5 -33 32 -2 84 rrcurveto
          64 27 98 34 154 vhcurveto
          hintmask 11001000
          17 71 10 60 52 vvcurveto
          168 -105 72 -329 -3 vhcurveto
          endchar
        </CharString>
        <CharString name="braceright.smcp">
          -570 606 19 692 39 hstemhm
          268 398 -332 409 hintmask 11100000
          217 1317 rmoveto
          hintmask 11010000
          78 -2 39 -17 -84 vvcurveto
          hintmask 11100000
          -116 -66 -117 -115 vvcurveto
          -153 213 -60 217 -28 vhcurveto
          -245 -4 -281 -82 -80 -299 -78 -289 -18 -29 -92 -2 -10 -39 rcurveline
          356 182 62 297 76 hvcurveto
          307 78 14 59 143 hhcurveto
          11 hlineto
          6 37 rlineto
          -10 hlineto
          -50 4 -32 47 -2 99 rrcurveto
          hintmask 11010000
          104 77 184 103 vvcurveto
          108 -161 64 -355 vhcurveto
          endchar
        </CharString>
        <CharString name="bracketleft">
          -540 -371 39 1874 39 hstem
          -43 1038 vstem
          442 1581 rmoveto
          -485 -1952 rlineto
          553 hlineto
          8 39 rlineto
          -166 hlineto
          469 1874 rlineto
          166 hlineto
          8 39 rlineto
          endchar
        </CharString>
        <CharString name="bracketleft.case">
          -533 -131 39 1634 39 hstem
          23 976 vstem
          446 1581 rmoveto
          -423 -1712 rlineto
          552 hlineto
          9 39 rlineto
          -166 hlineto
          407 1634 rlineto
          166 hlineto
          8 39 rlineto
          endchar
        </CharString>
        <CharString name="bracketleft.smcp">
          333 callsubr
          4 938 vstem
          934 1317 rmoveto
          8 39 rlineto
          -573 hlineto
          -365 -1467 rlineto
          574 hlineto
          8 39 rlineto
          -166 hlineto
          348 1389 rlineto
          endchar
        </CharString>
        <CharString name="bracketright">
          -538 -371 39 1874 39 hstem
          -166 1038 vstem
          387 -371 rmoveto
          485 1952 rlineto
          -553 hlineto
          -8 -39 rlineto
          166 hlineto
          -469 -1874 rlineto
          -166 hlineto
          -8 -39 rlineto
          endchar
        </CharString>
        <CharString name="bracketright.case">
          -536 -131 39 1634 39 hstem
          -102 976 vstem
          451 -131 rmoveto
          423 1712 rlineto
          -552 hlineto
          -9 -39 rlineto
          166 hlineto
          -407 -1634 rlineto
          -166 hlineto
          -8 -39 rlineto
          endchar
        </CharString>
        <CharString name="bracketright.smcp">
          333 callsubr
          -117 938 vstem
          -109 -72 rmoveto
          -8 -39 rlineto
          573 hlineto
          365 1467 rlineto
          -574 hlineto
          -8 -39 rlineto
          166 hlineto
          -348 -1389 rlineto
          endchar
        </CharString>
        <CharString name="breve">
          -140 1255 244 hstem
          301 737 vstem
          604 41 callsubr
          endchar
        </CharString>
        <CharString name="breve.case">
          -449 1563 243 hstem
          123 881 vstem
          502 -25 callgsubr
          endchar
        </CharString>
        <CharString name="breve.smcp">
          -449 1358 244 hstem
          123 881 vstem
          502 -26 callsubr
          endchar
        </CharString>
        <CharString name="brevecy">
          -370 1317 45 hstemhm
          362 386 -386 801 hintmask 10100000
          580 1378 rmoveto
          hintmask 11000000
          129 callgsubr
          162 188 86 217 129 vhcurveto
          -33 18 262 callgsubr
          rlinecurve
          hintmask 10100000
          -45 -41 6 10 -28 hvcurveto
          endchar
        </CharString>
        <CharString name="brevecy.case">
          -280 1540 43 hstemhm
          354 406 -406 1026 hintmask 10100000
          592 1612 rmoveto
          hintmask 11000000
          94 26 74 76 78 vvcurveto
          100 -72 47 -123 -123 -88 -75 -105 -135 162 -84 262 199 237 92 232 166 vhcurveto
          -30 22 -129 -176 -199 -125 -234 -2 rlinecurve
          hintmask 10100000
          -77 -74 6 23 -45 hvcurveto
          endchar
        </CharString>
        <CharString name="brevecy.smcp">
          -294 1333 43 hstemhm
          303 406 -406 1006 hintmask 10100000
          541 1405 rmoveto
          hintmask 11000000
          94 27 74 75 78 vvcurveto
          101 -72 47 -123 -123 -88 -76 -105 -135 162 -84 262 193 229 86 217 160 vhcurveto
          -31 23 -125 -164 -190 -117 -226 -2 rlinecurve
          hintmask 10100000
          -78 -73 6 23 -45 hvcurveto
          endchar
        </CharString>
        <CharString name="brokenbar">
          -536 -378 -21 hstem
          313 246 vstem
          559 786 rmoveto
          971 -246 -971 vlineto
          -118 vmoveto
          -1067 246 1067 vlineto
          endchar
        </CharString>
        <CharString name="bullet">
          -505 219 584 hstem
          113 587 vstem
          115 510 31 callsubr
        </CharString>
        <CharString name="bullet.case">
          -511 450 584 hstem
          166 587 vstem
          168 741 31 callsubr
        </CharString>
        <CharString name="bullet.smcp">
          -509 338 584 hstem
          142 587 vstem
          144 629 31 callsubr
        </CharString>
        <CharString name="c">
          123 callsubr
          782 1051 -82 callgsubr
        </CharString>
        <CharString name="c.smcp">
          42 50 callgsubr
          643 -29 -99 callgsubr
        </CharString>
        <CharString name="cacute">
          -376 -29 127 953 41 153 -20 hstem
          4 341 callgsubr
          379 vstem
          619 341 callsubr
          19 callgsubr
          -81 callsubr
          rrcurveto
          184 -194 -82 callgsubr
        </CharString>
        <CharString name="cacute.loclPLK">
          123 callsubr
          658 1217 -21 callsubr
          151 -178 -82 callgsubr
        </CharString>
        <CharString name="cacute.loclPLK.smcp">
          42 50 callgsubr
          942 1350 rmoveto
          158 137 215 callgsubr
          -12 callgsubr
          rrcurveto
          -274 -1393 -99 callgsubr
        </CharString>
        <CharString name="cacute.smcp">
          42 50 callgsubr
          861 1376 rmoveto
          -25 callsubr
          58 rrcurveto
          63 35 -98 callgsubr
          -63 -67 -121 164 callgsubr
          rrcurveto
          -204 -1430 -99 callgsubr
        </CharString>
        <CharString name="caron">
          -544 1241 463 hstem
          250 803 vstem
          664 1593 -6 callsubr
          endchar
        </CharString>
        <CharString name="caron.case">
          1556 335 callgsubr
          -11 callsubr
          endchar
        </CharString>
        <CharString name="caron.smcp">
          1352 335 callgsubr
          -12 callsubr
          endchar
        </CharString>
        <CharString name="ccaron">
          123 callsubr
          855 1591 -6 callsubr
          -73 -540 -82 callgsubr
        </CharString>
        <CharString name="ccaron.smcp">
          42 50 callgsubr
          1165 -12 callsubr
          -522 -1651 -99 callgsubr
        </CharString>
        <CharString name="ccedilla">
          -376 -385 49 330 -21 1078 41 hstemhm
          4 383 -93 282 67 379 hintmask 11110100
          643 754 rmoveto
          0 callsubr
          -461 -291 -443 -354 -206 134 -102 185 -14 vhcurveto
          -150 -190 rlineto
          hintmask 11101100
          -4 callgsubr
          81 108 227 5 142 136 86 134 rlinecurve
          -41 16 rlineto
          -127 -86 -80 -37 -80 hhcurveto
          hintmask 11110100
          241 callgsubr
          117 callgsubr
          endchar
        </CharString>
        <CharString name="ccedilla.smcp">
          42 307 callsubr
          41 9 135 callsubr
          45 430 174 262 hintmask 00000000
          hintmask 11001110
          1423 1245 rmoveto
          -81 -30 -27 -41 -26 hhcurveto
          -10 -9 6 12 -10 hvcurveto
          hintmask 11010110
          69 -60 -80 64 -163 hhcurveto
          -592 -371 -469 -404 -268 212 -153 353 -9 hvcurveto
          -82 -188 -32 callsubr
          40 88 157 5 106 56 103 72 rlinecurve
          12 17 14 6 11 hhcurveto
          hintmask 10110110
          18 8 -17 -35 -19 -2 -22 -4 -29 hvcurveto
          45 hlineto
          18 104 35 140 68 248 rrcurveto
          -46 hlineto
          -65 -160 -43 -86 -76 -78 rrcurveto
          hintmask 11010110
          -96 -99 -136 -55 -116 -5 2 3 rcurveline
          -56 hlineto
          -95 22 -58 121 205 vvcurveto
          388 232 489 282 123 107 -53 -107 51 vhcurveto
          22 -45 11 -39 -61 vvcurveto
          -39 -5 -49 -8 -70 vhcurveto
          45 hlineto
          hintmask 11001110
          58 196 callsubr
          34 100 rrcurveto
          endchar
        </CharString>
        <CharString name="ccircumflex">
          -376 -29 127 953 41 176 -20 hstem
          4 341 callgsubr
          379 vstem
          684 1350 -78 callsubr
          98 -299 -82 callgsubr
        </CharString>
        <CharString name="ccircumflex.smcp">
          42 50 callgsubr
          987 -91 callsubr
          -344 -1512 -99 callgsubr
        </CharString>
        <CharString name="cdotaccent">
          -376 -29 127 953 41 hstemhm
          4 383 158 432 -334 379 340 callsubr
          545 1382 rmoveto
          -88 61 -47 119 179 callsubr
          vhcurveto
          237 -331 rmoveto
          207 callsubr
          hintmask 11101000
          117 callgsubr
          0 callsubr
          -461 -291 -443 -354 -223 156 -101 209 235 146 138 137 88 vhcurveto
          44 callgsubr
          hvcurveto
          hintmask 11110000
          136 callgsubr
          vhcurveto
          endchar
        </CharString>
        <CharString name="cdotaccent.smcp">
          42 -29 37 13 135 callsubr
          45 430 373 432 hintmask 10101100
          848 1495 rmoveto
          -88 61 -47 119 252 callgsubr
          vhcurveto
          -205 -1524 rmoveto
          170 111 -3 callgsubr
          hintmask 01101100
          18 8 -17 -35 -19 -2 -22 -4 -29 hvcurveto
          45 hlineto
          18 104 35 140 68 248 rrcurveto
          -46 hlineto
          -65 -160 -43 -86 -76 -78 rrcurveto
          hintmask 10101100
          -105 -102 -146 -55 -120 hhcurveto
          -115 -72 123 229 388 232 489 282 123 107 -53 -107 51 hvcurveto
          22 -45 11 -39 -61 vvcurveto
          -39 -5 -49 -8 -70 vhcurveto
          45 hlineto
          hintmask 10011100
          58 196 callsubr
          34 344 callsubr
          -81 -30 -27 -41 -26 hhcurveto
          -10 -9 6 12 -10 hvcurveto
          hintmask 10101100
          69 -60 -80 64 -163 hhcurveto
          -592 -371 -469 -404 -276 225 -154 373 hvcurveto
          endchar
        </CharString>
        <CharString name="cedilla">
          -900 -385 49 hstemhm
          -154 588 -282 282 hintmask 11000000
          262 hmoveto
          -59 hlineto
          -172 -217 rlineto
          hintmask 10100000
          -4 callgsubr
          endchar
        </CharString>
        <CharString name="cedilla.case">
          300 callsubr
          14 rmoveto
          -56 hlineto
          -100 -231 -32 callsubr
          endchar
        </CharString>
        <CharString name="cedilla.smcp">
          300 callsubr
          12 rmoveto
          -56 hlineto
          -100 -229 -32 callsubr
          endchar
        </CharString>
        <CharString name="cent">
          -329 -350 -21 363 -21 1080 41 358 -20 hstem
          12 341 callgsubr
          379 vstem
          651 754 rmoveto
          0 callsubr
          -19 -19 -1 -1 -18 vhcurveto
          97 360 rlineto
          -45 hlineto
          -98 -365 rlineto
          -402 -60 -248 -403 -327 vvcurveto
          -218 149 -101 201 -5 vhcurveto
          -92 -342 rlineto
          45 hlineto
          92 343 218 11 137 132 84 131 rlinecurve
          -41 16 rlineto
          -127 -86 -80 -37 -80 hhcurveto
          -43 -37 12 26 -28 hvcurveto
          239 885 rlineto
          19 32 34 11 34 hhcurveto
          207 callsubr
          117 callgsubr
          -232 -573 rmoveto
          -16 32 -8 42 52 vvcurveto
          266 103 276 135 128 vhcurveto
          endchar
        </CharString>
</ttFont>
